<?xml version="1.0" standalone="no"?>
<!DOCTYPE svg PUBLIC "-//W3C//DTD SVG 20010904//EN"
 "http://www.w3.org/TR/2001/REC-SVG-20010904/DTD/svg10.dtd">
<svg version="1.0" xmlns="http://www.w3.org/2000/svg"
 width="5556.000000pt" height="5556.000000pt" viewBox="0 0 5556.000000 5556.000000"
 preserveAspectRatio="xMidYMid meet">

<g transform="translate(0.000000,5556.000000) scale(0.100000,-0.100000)"
fill="#000000" stroke="none" fill-rule="evenodd">
<path d="M0 27780 l0 -27780 27780 0 27780 0 0 27780 0 27780 -27780 0 -27780
0 0 -27780z m12559 25436 c112 -41 207 -78 211 -83 4 -4 61 -78 127 -163 124
-159 128 -168 138 -280 12 -134 40 -433 51 -540 8 -90 14 -124 22 -131 15 -14
550 -243 723 -310 l183 -70 226 1 225 2 100 -35 c55 -19 119 -43 141 -55 23
-12 44 -18 48 -15 9 9 246 -109 246 -122 0 -6 27 -24 60 -40 33 -16 60 -31 60
-34 0 -3 9 -73 19 -156 18 -137 26 -166 91 -343 l72 -194 1 -138 c1 -122 -1
-142 -17 -159 -29 -32 -126 -547 -126 -667 0 -18 27 -46 110 -115 l110 -92 -1
-136 0 -136 -57 -165 -57 -164 -185 -93 c-102 -51 -310 -143 -464 -204 -240
-97 -289 -120 -357 -170 l-79 -59 0 -109 0 -109 48 -10 c26 -6 65 -14 87 -18
22 -3 56 -15 76 -25 20 -10 49 -20 64 -23 31 -6 89 -63 115 -113 13 -23 17
-58 17 -135 1 -98 -1 -106 -34 -173 -28 -57 -62 -97 -184 -220 l-149 -150 -74
-184 -73 -185 -166 -187 -166 -186 -78 1 c-43 0 -81 5 -84 10 -16 21 -110 23
-273 4 l-169 -19 -226 76 -227 75 -149 131 c-92 79 -153 140 -157 155 -4 14
-11 31 -17 38 -6 7 -15 46 -21 87 -11 86 -32 162 -95 349 l-45 134 0 157 0
157 38 33 c26 24 60 40 117 56 44 13 188 52 320 88 132 36 248 69 257 73 10 4
59 65 110 136 l93 129 204 149 c205 149 205 149 258 236 29 48 53 90 53 94 0
12 -796 8 -860 -4 -30 -5 -62 -15 -70 -22 -8 -7 -91 -23 -185 -36 -93 -12
-181 -27 -195 -32 -37 -15 -178 -12 -315 6 -140 18 -100 -12 -364 276 l-170
185 -1 138 0 137 35 70 35 70 0 380 c0 322 -2 386 -15 411 -12 23 -48 45 -165
104 -82 41 -156 75 -165 75 -8 0 -61 37 -118 83 -57 45 -144 113 -194 152 -81
63 -92 75 -109 125 -18 53 -20 55 -57 55 -34 1 -47 10 -127 90 -54 53 -90 98
-90 110 0 11 7 64 17 118 15 88 23 109 72 190 l56 90 97 0 98 0 137 -103 c184
-137 193 -147 200 -212 8 -71 26 -121 70 -188 l35 -55 147 -54 c145 -54 146
-54 226 -131 87 -85 131 -110 455 -259 l165 -75 137 -4 137 -3 21 40 c18 36
20 59 20 208 0 155 3 180 35 323 19 85 35 162 35 172 0 9 -41 89 -91 178 l-90
161 -38 207 -38 207 -149 168 c-119 135 -158 187 -200 265 -28 53 -72 133 -97
177 -26 44 -47 88 -47 98 0 10 -5 28 -12 40 -17 32 -18 227 -1 227 8 0 13 13
13 33 0 27 12 45 80 112 l80 79 112 17 c62 9 122 17 134 18 11 0 111 -32 223
-73z m13831 -555 c25 -16 140 -89 255 -163 l210 -134 80 -120 80 -119 73 -335
73 -335 -41 -195 c-49 -234 -79 -382 -119 -591 -23 -121 -38 -173 -65 -228
l-36 -71 19 -113 c20 -111 115 -450 134 -475 11 -14 119 -9 292 13 17 2 66 7
110 11 72 6 94 13 220 76 l140 70 175 173 175 174 130 36 c127 36 132 39 188
93 l57 56 0 171 0 170 94 94 93 93 77 -19 77 -18 92 -112 92 -112 220 -91 220
-92 100 -97 c69 -68 128 -114 190 -151 50 -29 117 -79 150 -111 47 -46 92 -74
209 -134 l149 -75 337 0 c394 0 355 12 414 -135 l36 -90 273 -39 272 -38 365
5 c357 5 437 10 408 28 -8 5 26 9 83 9 92 0 102 2 244 56 l149 55 74 -18 75
-19 58 -154 59 -155 0 -182 c0 -165 -2 -186 -20 -215 -18 -30 -20 -51 -20
-208 l0 -175 37 -92 36 -93 206 0 c173 0 218 4 280 20 71 19 79 19 170 4 53
-8 105 -19 117 -24 16 -6 234 -273 267 -327 4 -6 -9 -70 -30 -142 l-37 -131
-92 -72 -93 -73 -56 -131 c-54 -127 -59 -134 -139 -213 -46 -44 -90 -81 -99
-81 -8 0 -20 -7 -27 -15 -7 -8 -16 -12 -21 -9 -5 3 -65 -13 -132 -35 -120 -40
-126 -44 -237 -136 l-114 -95 -42 -142 c-22 -79 -55 -178 -73 -221 l-31 -78 0
-287 0 -287 91 -238 92 -239 -17 -101 c-23 -145 -23 -597 0 -672 l16 -51 217
-54 c119 -29 256 -68 304 -87 49 -18 100 -33 113 -33 13 0 155 65 314 145
l290 145 167 0 c151 0 170 -2 193 -20 14 -11 29 -20 34 -20 6 0 62 -52 126
-115 83 -82 124 -115 141 -115 13 0 65 -4 114 -10 50 -5 122 -12 160 -16 65
-6 76 -11 147 -63 l77 -56 1 -112 c0 -108 1 -113 23 -118 40 -9 521 -105 527
-105 4 0 14 25 24 55 l17 55 75 0 c40 0 74 -4 74 -8 0 -5 -15 -46 -34 -93 -32
-79 -34 -85 -18 -100 9 -9 86 -78 171 -153 125 -111 159 -136 185 -137 17 0
38 -2 46 -3 8 -2 69 -9 135 -16 106 -12 143 -22 319 -86 109 -40 205 -79 211
-86 7 -7 38 -58 70 -113 31 -55 73 -115 93 -132 37 -33 260 -147 359 -184 28
-11 124 -35 212 -53 l161 -33 0 36 c0 33 11 47 118 153 108 107 126 120 227
170 l110 55 109 -19 c106 -18 112 -21 186 -76 l77 -57 37 -110 c36 -110 36
-112 36 -281 l0 -170 36 -35 c19 -18 42 -47 50 -64 8 -16 27 -43 42 -60 27
-28 42 -33 304 -85 l276 -54 94 17 c177 32 227 14 300 -107 26 -43 52 -83 58
-90 5 -7 49 -28 96 -46 65 -26 155 -79 368 -222 l281 -187 95 -113 c90 -107
104 -119 270 -229 119 -79 202 -127 262 -150 83 -32 88 -35 107 -79 15 -34 24
-93 37 -240 12 -139 23 -212 38 -254 20 -58 22 -60 76 -78 50 -17 62 -28 130
-113 69 -89 76 -95 105 -90 16 2 71 7 120 10 50 3 143 10 208 16 l118 10 302
-56 c191 -36 310 -63 324 -73 12 -10 62 -51 112 -92 l90 -75 1 -170 1 -170
112 -131 c103 -121 118 -135 188 -169 l75 -37 94 57 c55 34 99 70 109 87 9 16
34 57 56 92 l40 63 87 -17 c49 -9 91 -19 94 -23 3 -3 -2 -88 -12 -189 -16
-166 -22 -192 -55 -275 l-38 -93 110 0 c71 0 108 -4 104 -10 -3 -5 -5 -10 -3
-10 158 -19 206 -18 278 2 41 11 81 25 88 31 7 6 39 21 70 34 54 22 71 19 72
-9 0 -5 6 -8 13 -8 8 0 12 -18 10 -60 -1 -64 5 -51 -118 -222 -59 -83 -78
-130 -91 -229 -6 -48 -6 -48 29 -65 22 -11 64 -52 108 -108 81 -100 79 -94
100 -307 l12 -121 93 -149 94 -148 2 -228 3 -228 60 -31 c64 -34 552 -191 561
-181 4 3 -2 61 -11 128 l-17 121 38 39 39 38 73 -19 c41 -10 75 -20 76 -22 2
-2 11 -45 21 -96 l18 -94 -57 -57 c-54 -55 -56 -58 -56 -112 0 -51 3 -58 38
-92 37 -36 42 -38 157 -52 76 -10 208 -15 362 -15 214 0 249 2 293 19 81 31
283 213 514 466 l207 225 75 0 74 0 0 -127 c1 -156 8 -174 77 -189 75 -16 148
-1 239 49 43 24 124 68 179 97 147 79 202 127 314 275 54 72 146 186 205 255
l107 125 131 37 c92 26 148 48 187 74 65 44 280 119 286 101 10 -30 35 -140
33 -142 -2 -1 -59 -42 -128 -91 -69 -48 -193 -148 -277 -221 -113 -99 -189
-156 -300 -223 -206 -126 -264 -169 -425 -311 -87 -77 -206 -168 -312 -239
-95 -63 -238 -164 -318 -225 l-146 -110 -37 -125 c-65 -219 -76 -248 -106
-286 -16 -20 -29 -40 -29 -44 0 -5 -20 -29 -45 -55 -45 -46 -46 -46 -121 -49
-68 -2 -75 -1 -79 18 -3 12 -11 52 -19 89 -8 37 -16 70 -18 72 -3 3 -41 -8
-86 -23 -113 -38 -153 -75 -247 -226 -43 -69 -84 -126 -91 -126 -7 0 -18 -9
-24 -21 -7 -11 -25 -25 -41 -31 -20 -7 -29 -17 -29 -31 0 -12 16 -130 36 -262
l37 -240 53 -105 53 -105 0 83 1 82 76 114 76 114 63 16 c95 24 92 25 110 -58
l17 -75 -37 -98 c-20 -54 -46 -121 -56 -150 l-20 -51 -90 -17 c-50 -9 -97 -14
-105 -11 -16 6 72 -174 119 -244 57 -86 187 -209 259 -246 37 -19 70 -34 73
-34 2 0 28 46 56 103 37 74 68 120 114 167 41 43 86 107 133 190 55 98 85 139
137 187 94 87 122 98 308 117 l157 17 94 -56 c56 -33 93 -62 90 -69 -3 -7 22
-31 55 -55 57 -41 65 -53 171 -248 l112 -205 -8 -92 c-4 -50 -8 -93 -9 -96 -1
-3 -5 -45 -9 -95 -7 -87 -9 -91 -47 -130 l-39 -41 55 -164 c49 -147 63 -177
130 -277 l75 -113 0 -448 c0 -423 1 -452 20 -507 18 -51 20 -84 20 -279 0
-208 2 -235 36 -446 21 -124 39 -227 40 -229 2 -2 42 -11 89 -21 48 -10 90
-22 95 -26 4 -5 24 -66 44 -136 l36 -127 0 -219 c0 -193 -2 -226 -20 -277 -19
-56 -20 -84 -20 -675 0 -573 1 -621 18 -671 18 -53 18 -58 -4 -284 -13 -126
-27 -259 -31 -295 -11 -83 4 -159 54 -262 l36 -77 -27 -38 c-14 -21 -40 -56
-56 -78 -24 -34 -31 -58 -44 -155 -20 -143 -20 -147 2 -154 9 -3 41 -28 71
-55 l54 -49 -17 -49 c-15 -42 -61 -352 -54 -358 15 -10 215 -45 233 -41 37 9
175 -62 175 -90 0 -11 9 -29 20 -39 18 -17 20 -31 20 -184 l0 -167 -71 -69
c-46 -46 -92 -107 -133 -175 -62 -103 -64 -107 -70 -195 -4 -49 -11 -124 -16
-165 -5 -41 -12 -106 -15 -145 -8 -100 -25 -264 -30 -303 -8 -54 83 -195 200
-312 l95 -95 0 -132 0 -133 153 0 153 0 35 -37 c24 -26 60 -93 111 -208 71
-162 76 -176 92 -302 l17 -131 -54 -109 c-59 -116 -58 -113 -72 -345 -20 -348
-23 -372 -44 -471 l-17 -81 -206 -94 -205 -93 -17 -91 -18 -91 131 -131 131
-131 0 -151 c0 -182 8 -170 -170 -247 -162 -69 -170 -81 -170 -242 l1 -110 73
-165 c40 -90 80 -167 87 -171 8 -4 101 -22 207 -41 l193 -33 39 -61 40 -60 0
-295 c0 -258 -3 -303 -20 -369 -10 -41 -24 -76 -29 -78 -5 -2 -22 -36 -37 -75
-19 -50 -50 -101 -103 -168 l-76 -96 -186 -55 -187 -56 -153 -115 c-123 -91
-172 -121 -241 -148 -54 -21 -88 -40 -89 -49 -1 -8 -2 -26 -3 -40 -2 -14 -36
-75 -76 -135 l-74 -110 -57 -285 c-53 -262 -62 -295 -113 -413 l-56 -128 0
-148 c0 -146 0 -148 36 -236 l35 -88 1 -205 0 -205 41 -84 41 -83 116 0 c78 0
150 7 223 21 l108 22 35 -34 c39 -38 37 -32 60 -186 l16 -113 34 0 c19 0 34
-4 34 -10 0 -5 20 -15 44 -21 25 -6 52 -20 62 -30 9 -10 23 -19 31 -19 7 0 13
-6 13 -13 0 -7 27 -39 60 -72 l60 -59 0 -134 c0 -169 -6 -183 -134 -285 l-95
-77 -111 0 c-92 0 -118 4 -151 20 -21 11 -79 29 -128 39 l-88 18 -93 -55 -94
-55 -55 13 c-91 22 -336 24 -488 4 l-133 -17 0 -36 c0 -20 -8 -47 -17 -61 -9
-13 -35 -90 -58 -170 l-40 -145 -95 -58 c-64 -38 -127 -89 -190 -151 l-95 -94
-118 -16 c-65 -9 -123 -16 -127 -16 -5 0 -34 -42 -65 -93 l-55 -93 0 -130 0
-131 -95 -134 c-53 -74 -137 -176 -188 -227 l-92 -92 -264 0 -264 0 -114 -66
c-76 -45 -118 -75 -124 -91 -23 -62 -23 -64 72 -176 87 -104 92 -113 129 -222
30 -89 50 -128 93 -186 48 -65 127 -205 127 -226 0 -5 -16 -17 -36 -28 -32
-18 -43 -37 -108 -185 l-72 -165 -45 -17 c-24 -9 -51 -17 -59 -17 -9 -1 -46
47 -87 108 -69 105 -73 109 -124 126 -30 10 -67 27 -84 39 -16 11 -81 45 -144
74 l-114 52 -81 -9 c-45 -6 -144 -15 -221 -21 -77 -5 -167 -12 -200 -15 -33
-2 -109 -7 -170 -10 -148 -8 -159 -10 -245 -51 -68 -33 -82 -44 -149 -130
l-75 -95 -151 -74 c-94 -47 -163 -88 -185 -110 l-34 -35 203 0 203 0 132 -75
c132 -75 133 -76 244 -206 78 -91 112 -139 113 -157 1 -15 2 -42 4 -60 3 -36
12 -191 21 -357 3 -55 7 -121 9 -148 5 -46 3 -50 -91 -179 -68 -95 -107 -139
-137 -157 -23 -13 -59 -39 -80 -58 -20 -18 -46 -33 -58 -33 -11 0 -32 -6 -47
-14 -42 -21 -261 -18 -432 6 -248 34 -440 45 -564 31 -125 -14 -180 -30 -287
-84 -85 -42 -101 -61 -119 -140 -12 -54 -12 -56 23 -124 33 -67 61 -182 71
-297 l5 -47 -88 -83 c-52 -49 -111 -95 -147 -113 -179 -90 -339 -185 -421
-252 l-93 -74 0 -153 0 -154 -40 -36 c-27 -25 -50 -36 -70 -36 -18 0 -33 -6
-36 -15 -5 -12 -26 -15 -100 -15 -80 0 -99 3 -141 26 -73 38 -103 71 -103 113
0 20 -9 55 -20 78 l-19 42 -167 -57 -166 -57 -57 -149 -56 -150 -74 -18 -74
-19 -39 38 c-21 20 -38 42 -38 48 0 23 -79 106 -203 212 -147 127 -203 163
-308 198 -71 25 -92 25 -84 2 2 -7 6 -55 9 -107 14 -215 18 -260 38 -360 22
-114 61 -223 90 -252 11 -11 18 -32 18 -53 0 -20 15 -84 34 -143 39 -121 66
-238 66 -279 0 -15 -17 -59 -38 -98 -34 -64 -41 -71 -87 -88 -27 -10 -68 -27
-91 -36 l-41 -18 13 -99 c7 -55 16 -122 19 -149 5 -38 -3 -96 -29 -227 -20
-97 -36 -180 -36 -185 0 -5 49 -17 110 -28 107 -17 112 -20 185 -74 l75 -55 0
-97 0 -96 -56 -37 c-51 -34 -59 -37 -112 -32 -166 14 -346 58 -387 96 -11 10
-70 43 -132 74 l-112 56 -240 -1 c-132 0 -244 1 -248 4 -8 4 -39 7 -261 23
l-93 7 -82 -79 c-45 -44 -130 -111 -188 -149 l-106 -69 -56 -170 c-52 -155
-62 -178 -115 -245 l-57 -75 -110 -36 -110 -37 0 -74 0 -74 204 -38 205 -38
189 -97 190 -97 73 -185 73 -185 -19 -149 -20 -149 157 -176 c86 -97 163 -183
172 -191 30 -28 167 -194 234 -285 49 -64 100 -117 182 -185 l115 -94 0 -96 0
-96 -76 -18 c-41 -10 -77 -16 -78 -15 -2 2 -27 45 -56 94 -43 73 -86 124 -230
270 -97 99 -233 243 -302 320 l-126 140 -119 49 c-65 27 -126 56 -135 63 -9 8
-47 61 -84 117 l-68 103 -111 37 -111 36 -97 99 c-53 54 -97 103 -97 110 0 6
-49 71 -110 145 -99 121 -119 140 -222 208 -99 67 -123 78 -192 92 -106 22
-106 22 -106 -16 0 -28 14 -47 94 -128 l94 -95 17 -121 c9 -67 15 -129 14
-138 -2 -9 -35 -56 -73 -104 -69 -87 -71 -88 -239 -182 l-169 -95 -57 -149
-56 -149 -92 -36 -93 -36 -36 -90 c-38 -95 -79 -145 -120 -145 -12 0 -115 -31
-229 -70 -132 -44 -223 -69 -249 -69 -46 1 -189 20 -371 49 -141 23 -176 27
-310 35 -55 3 -125 8 -155 10 -30 2 -99 7 -152 11 l-98 6 0 -38 c0 -37 -5 -43
-93 -114 -50 -41 -195 -176 -322 -300 -126 -124 -262 -249 -301 -278 l-71 -53
-17 -94 -18 -93 52 -89 c66 -111 110 -173 124 -173 6 0 44 -50 84 -110 54 -82
77 -110 93 -110 12 0 77 7 146 17 119 15 131 15 242 -2 l116 -18 131 -129 132
-130 16 -81 c9 -45 16 -91 16 -102 0 -12 -36 -56 -89 -109 l-89 -88 -138 7
c-77 4 -151 8 -165 10 -14 2 -96 6 -182 10 l-157 8 0 -32 c0 -23 -10 -41 -40
-71 -34 -34 -46 -40 -83 -40 -54 0 -129 25 -153 51 -9 10 -27 19 -39 19 -16 0
-33 16 -58 54 -40 60 -33 57 -197 81 l-105 15 -215 142 -215 142 -232 230
c-175 173 -234 237 -238 260 -8 42 -26 76 -39 76 -6 0 -32 -14 -58 -30 -45
-28 -48 -33 -48 -71 0 -46 -63 -189 -83 -189 -7 0 -90 -9 -186 -19 l-174 -19
-41 -41 c-22 -23 -91 -123 -151 -224 l-111 -182 -107 -73 -106 -73 -121 -1
c-143 -2 -145 -1 -165 97 -8 38 -18 72 -23 77 -4 4 -56 -8 -115 -28 l-108 -36
-53 -107 c-29 -58 -56 -119 -60 -136 -4 -16 -23 -53 -42 -81 -35 -51 -36 -52
-112 -65 -42 -7 -97 -13 -121 -13 -43 -1 -44 0 -76 59 -18 33 -36 80 -40 105
-4 25 -25 140 -47 255 -21 116 -42 226 -45 245 -3 21 -20 50 -41 73 l-36 37
-208 0 -209 0 -92 74 c-65 52 -136 96 -242 149 l-150 75 -95 -57 c-130 -77
-148 -89 -204 -136 -28 -22 -51 -39 -53 -37 -2 1 -17 -5 -34 -13 -18 -10 -100
-23 -214 -35 l-184 -18 -68 -52 c-90 -68 -218 -225 -328 -403 l-90 -145 -183
-73 c-100 -40 -186 -77 -190 -83 -5 -6 -23 -65 -41 -131 l-34 -120 -77 -80
c-73 -74 -82 -89 -132 -207 l-54 -127 -151 -76 -151 -77 -75 -112 -75 -112
-303 -171 c-430 -242 -572 -333 -714 -459 -177 -156 -174 -154 -273 -174 l-87
-18 -115 114 -115 114 -96 0 c-68 0 -108 5 -135 17 -31 13 -79 17 -244 19
-113 2 -257 8 -320 14 -63 6 -137 13 -165 15 -92 8 -180 17 -205 20 -14 2 -61
6 -105 9 -111 9 -124 11 -450 72 -288 53 -293 54 -480 54 -169 -1 -445 -25
-458 -40 -18 -23 -67 -113 -67 -124 0 -7 -9 -21 -21 -32 -16 -14 -37 -19 -97
-20 -75 -1 -78 0 -114 34 -21 20 -38 44 -38 54 0 14 -61 149 -74 165 -2 3
-192 24 -331 38 -33 3 -91 10 -130 15 -38 5 -99 12 -135 15 -36 3 -183 40
-328 81 l-263 74 -377 190 c-207 104 -413 209 -457 233 -44 24 -116 63 -160
86 -44 24 -91 53 -104 65 -71 64 -273 313 -391 480 -74 106 -209 292 -300 412
l-164 220 -156 116 c-123 92 -222 153 -484 298 l-329 183 -96 -18 c-91 -17
-103 -17 -234 0 -76 9 -150 15 -165 12 -15 -3 -79 -29 -142 -56 l-115 -51 -55
-130 c-35 -85 -60 -130 -70 -131 -8 0 -22 -2 -30 -3 -8 -2 -42 -6 -75 -10 -33
-3 -71 -8 -85 -10 -14 -3 -43 -7 -65 -10 -22 -2 -274 -63 -561 -135 l-520
-130 -74 19 c-41 11 -132 44 -202 74 l-128 55 -257 15 c-142 9 -294 18 -338
21 -78 5 -80 4 -132 -30 l-53 -35 -140 0 -141 0 -50 32 c-42 27 -58 46 -90
111 l-39 77 -285 0 c-245 0 -289 2 -310 16 -26 17 -79 24 -311 45 l-142 12
-73 93 -73 93 -133 57 -134 58 -56 75 c-36 49 -90 103 -152 153 -53 42 -202
174 -331 293 -145 134 -337 298 -502 427 l-266 210 -170 226 c-93 125 -226
317 -296 427 -107 167 -144 217 -230 305 -183 187 -224 246 -371 540 -171 341
-219 405 -398 527 -303 207 -285 185 -331 390 -30 136 -42 172 -75 225 -37 59
-40 69 -46 163 -4 55 -8 107 -10 115 -2 8 -7 53 -10 100 -6 70 -20 122 -82
295 -111 312 -278 819 -299 905 -9 41 -23 80 -29 85 -7 6 -20 57 -29 115 -17
105 -17 105 -67 156 -27 28 -57 64 -67 82 -9 17 -29 46 -44 65 -24 29 -30 52
-46 163 l-18 129 -54 73 -54 72 -139 0 c-95 0 -159 -5 -201 -16 -33 -9 -63
-17 -65 -20 -2 -2 29 -60 69 -130 l73 -128 -17 -105 c-11 -73 -35 -155 -74
-262 l-57 -157 -80 -16 c-112 -24 -111 -24 -205 13 -68 27 -97 46 -147 94 -51
50 -64 69 -74 111 -7 28 -15 58 -20 66 -4 8 -16 55 -28 104 -15 66 -34 111
-72 176 l-52 88 -156 75 c-86 41 -237 108 -335 148 -142 58 -217 96 -363 186
-101 62 -186 113 -189 113 -2 0 -29 16 -59 36 -52 35 -75 71 -75 122 0 7 -4
11 -9 7 -13 -7 -18 13 -31 130 -10 85 -21 121 -71 240 l-59 140 -185 73 c-102
41 -183 78 -180 82 7 12 -28 30 -58 30 -13 0 -32 9 -42 20 -16 18 -31 20 -152
20 l-133 0 0 169 0 169 -51 86 c-28 47 -56 89 -63 94 -6 5 -108 50 -227 100
-199 82 -228 98 -350 185 -130 92 -339 207 -377 207 -29 0 -49 29 -90 130
l-38 94 -109 36 -110 37 -6 39 c-4 21 -10 76 -14 122 -4 46 -8 91 -10 100 -2
9 -4 38 -4 65 l-1 47 -42 0 c-43 0 -78 21 -78 47 0 7 -7 25 -16 38 -12 19 -15
52 -15 152 0 126 3 146 57 378 12 51 11 86 -1 245 -9 102 -17 203 -20 224 -4
34 1 46 45 105 78 104 220 238 271 256 24 9 72 33 106 53 57 35 63 41 79 94
l17 57 -56 74 -55 74 61 29 c86 40 189 141 310 304 143 192 141 191 213 185
33 -3 84 -9 114 -14 131 -23 115 -32 298 173 l163 183 120 68 c66 37 127 74
135 82 21 21 13 260 -11 325 -16 45 -18 47 -103 81 -48 19 -103 38 -122 42
-19 4 -65 23 -102 41 l-68 34 0 74 c0 41 4 76 9 78 12 4 31 141 31 226 0 57 4
70 24 89 15 15 36 23 58 23 49 0 157 40 273 100 80 42 118 70 188 139 48 47
87 90 87 96 0 6 -16 42 -35 79 l-35 69 0 145 c0 108 4 159 17 199 15 47 15 66
5 171 -19 179 -156 854 -204 1002 -40 125 -41 125 -115 201 l-75 77 -54 233
-55 234 -1 220 c-1 181 2 226 15 250 22 44 405 599 520 755 115 155 174 220
199 220 10 0 67 24 126 54 l109 54 91 164 c51 90 93 165 94 168 2 4 54 48 115
99 l112 94 3 150 3 151 125 54 c116 49 130 58 203 131 l78 78 39 132 c27 94
49 149 74 185 28 41 47 92 92 259 l57 207 39 0 38 0 0 101 c0 79 7 126 31 222
61 243 119 605 119 750 0 59 5 98 15 115 31 57 55 168 55 257 0 81 -3 94 -36
161 -19 39 -77 172 -129 295 l-93 224 -123 143 c-119 138 -140 157 -519 462
-217 174 -456 371 -530 436 -128 113 -141 128 -250 290 -110 164 -120 175
-247 283 l-131 113 -51 122 c-28 66 -55 126 -59 132 -4 6 -34 29 -67 51 -33
23 -98 80 -145 128 -82 84 -91 90 -273 181 -165 83 -198 96 -265 105 -42 5
-108 14 -147 19 -38 5 -131 17 -205 26 l-135 17 -132 -57 -131 -56 -160 0
c-138 0 -196 6 -416 40 -141 22 -372 65 -513 95 l-257 55 -116 113 c-63 62
-163 155 -222 206 -97 84 -108 97 -122 144 -8 29 -25 87 -37 129 l-22 78 18
134 18 134 226 225 226 225 151 37 c127 31 162 36 212 30 33 -3 125 -12 204
-19 l144 -12 94 -76 c93 -74 99 -77 299 -149 l204 -74 81 -101 c45 -56 137
-182 206 -281 l125 -180 262 -112 262 -112 173 87 c95 48 218 106 272 129 55
23 101 46 103 51 2 5 -5 23 -16 39 -18 30 -22 31 -207 64 -104 19 -196 37
-205 42 -9 4 -39 46 -67 92 l-52 84 0 139 1 139 129 146 129 147 73 -15 c40
-9 136 -18 213 -22 l140 -6 107 -72 107 -73 91 0 90 0 223 111 c122 61 224
113 226 114 1 2 11 61 21 132 18 125 18 128 -1 149 -19 20 -19 21 21 99 l40
79 0 121 0 121 -33 31 c-17 16 -110 77 -206 134 l-174 103 -248 77 c-242 75
-248 78 -325 136 -44 33 -155 111 -249 173 -93 62 -259 178 -368 258 l-198
144 3 96 3 97 105 88 c60 50 139 105 184 128 l79 41 96 -95 c53 -51 139 -129
191 -172 52 -43 103 -85 112 -93 9 -8 85 -31 168 -52 l151 -38 122 -83 c180
-123 461 -346 552 -438 l80 -81 81 0 c79 0 84 2 203 60 l122 60 129 0 c101 0
137 4 165 17 26 12 67 58 148 167 95 127 131 166 243 263 112 96 149 135 244
263 61 82 120 152 131 155 10 4 19 12 19 19 0 7 47 27 106 46 105 34 106 35
150 93 44 59 154 255 154 275 0 6 25 51 55 101 l55 90 0 153 0 153 -58 74 -57
74 -185 73 c-184 74 -185 74 -260 147 -41 41 -133 125 -205 187 -76 66 -169
160 -225 227 -57 68 -137 148 -200 201 -164 136 -151 115 -151 249 -1 84 3
119 13 128 41 37 296 261 309 272 8 7 73 21 144 31 l128 18 77 -57 c74 -54 78
-59 110 -140 44 -110 148 -320 194 -389 35 -54 371 -422 503 -552 55 -54 217
-168 240 -168 3 0 42 22 87 49 83 51 186 93 221 92 36 -2 145 21 145 30 0 5
25 9 55 9 l55 0 0 98 c0 82 3 102 18 115 9 8 59 23 110 33 l92 18 40 -39 c22
-22 40 -47 40 -57 0 -10 16 -43 36 -73 38 -57 37 -57 169 -81 45 -8 127 -49
118 -58 -3 -3 10 -12 29 -20 19 -8 51 -34 72 -58 20 -24 43 -50 52 -59 8 -9
29 -53 48 -99 18 -45 39 -86 47 -90 8 -4 38 -13 67 -20 44 -10 58 -10 92 4 69
27 336 193 676 420 319 213 334 224 398 303 l66 82 0 368 c0 203 -4 404 -9
448 -5 44 -12 114 -16 155 -3 41 -8 100 -11 130 l-5 55 150 187 151 188 0 202
0 203 -91 220 -92 220 -81 82 -81 81 -147 0 -146 -1 -79 46 c-72 42 -95 49
-297 92 -208 45 -263 64 -309 106 -10 9 -92 32 -190 54 -175 38 -207 52 -207
89 -1 39 -44 103 -157 236 -62 72 -113 136 -113 141 0 5 -17 31 -37 57 -27 33
-48 80 -72 155 l-35 107 -38 0 c-26 0 -99 28 -242 94 -198 90 -210 94 -324
110 -65 9 -123 16 -130 16 -8 0 -12 -22 -12 -67 0 -50 12 -113 46 -238 25 -93
52 -183 59 -200 7 -16 21 -77 30 -134 l16 -104 -75 -76 c-67 -68 -80 -87 -119
-181 -24 -58 -66 -141 -93 -185 -48 -77 -52 -80 -97 -89 -26 -5 -47 -15 -47
-21 0 -8 -29 -15 -82 -19 -147 -12 -196 -24 -251 -64 -39 -27 -74 -40 -137
-54 -47 -10 -93 -18 -102 -18 -9 0 -90 49 -180 109 -121 81 -183 130 -241 191
-42 45 -77 88 -77 95 0 8 -5 17 -10 20 -20 12 -70 132 -70 166 0 19 -5 52 -11
74 -15 56 -20 242 -8 287 5 20 14 70 19 112 14 115 52 181 173 304 56 56 106
102 112 102 6 0 39 26 73 58 55 50 65 64 77 115 20 79 19 84 -15 102 -38 20
-72 22 -370 30 -135 3 -285 8 -335 10 -49 2 -188 7 -308 11 l-218 6 -56 -37
c-62 -41 -52 -40 -318 -50 -93 -3 -192 -8 -220 -10 -27 -2 -117 -7 -200 -10
l-150 -6 -277 93 -277 93 -111 90 -110 90 -60 117 -60 117 20 188 20 187 72
74 c65 65 90 82 220 148 l148 74 99 0 c57 0 101 -4 103 -10 1 -5 23 -13 48
-16 25 -3 132 -23 238 -44 141 -27 199 -43 215 -57 17 -16 52 -24 167 -38
l145 -17 96 -56 c52 -31 106 -70 119 -87 13 -17 39 -42 57 -56 18 -13 37 -38
43 -56 6 -17 39 -67 72 -110 34 -43 62 -79 62 -80 3 -4 66 -12 151 -18 50 -3
108 -8 130 -10 22 -2 72 -7 110 -10 39 -4 113 -13 165 -21 52 -8 156 -23 230
-35 74 -11 214 -37 310 -59 112 -24 215 -41 285 -44 61 -4 130 -9 155 -11 51
-5 327 -19 350 -17 37 2 276 54 286 63 6 5 109 25 230 46 l218 36 77 57 c75
56 81 58 248 100 l171 42 93 127 c52 69 126 177 166 239 l71 113 0 77 c0 42
-5 104 -10 137 -13 75 -27 175 -35 240 -3 28 -12 82 -20 120 -7 39 -16 122
-19 185 -6 113 -11 165 -24 265 l-7 50 -90 49 c-50 26 -104 56 -120 65 -75 40
-165 113 -165 134 -1 12 -5 83 -10 157 -5 74 -12 185 -15 245 -4 61 -8 116
-11 124 -5 17 139 197 163 205 10 3 95 19 188 36 94 17 179 32 191 35 17 4 23
19 37 93 22 114 23 406 2 542 -25 162 -33 143 114 269 l129 111 36 90 36 90 0
227 c0 304 -2 309 -127 410 -53 43 -93 82 -92 91 0 9 8 44 17 77 l17 60 73 19
73 19 93 -92 94 -93 103 -4 c57 -2 134 -11 172 -20 l67 -16 0 -39 c0 -38 1
-39 38 -39 34 0 46 -9 150 -113 l112 -112 37 -185 37 -185 92 -111 c70 -83 96
-121 103 -153 5 -24 14 -48 20 -54 6 -6 11 -31 11 -56 0 -24 8 -84 17 -132 15
-81 20 -92 58 -129 23 -23 116 -82 206 -133 l164 -92 58 -170 c55 -164 59
-172 112 -224 l54 -54 213 16 c117 10 218 17 224 17 7 0 29 42 49 93 20 50 38
93 40 95 2 2 35 12 75 22 l71 18 8 -21 c5 -12 14 -46 21 -74 12 -52 13 -53 48
-53 27 0 110 -40 346 -169 171 -92 374 -202 451 -244 l140 -75 150 19 c147 19
151 18 261 0 75 -13 141 -32 196 -56 46 -20 90 -38 99 -40 9 -2 111 -47 225
-100 177 -82 229 -101 338 -126 70 -16 135 -29 142 -29 8 0 72 41 142 91 122
88 129 95 199 200 40 60 73 112 73 116 0 5 -16 49 -35 98 l-35 90 -225 225
c-124 124 -225 231 -225 239 0 8 -6 22 -14 30 -8 9 -17 32 -20 51 -3 19 -20
70 -38 114 -32 76 -37 82 -147 174 -132 112 -456 462 -576 625 -43 59 -84 107
-90 107 -6 0 -19 16 -28 35 -13 27 -17 64 -17 152 l0 117 37 38 37 38 112 0
111 0 84 -63 c46 -35 129 -93 185 -130 l101 -67 114 0 115 0 74 75 75 75 36
128 36 127 54 19 c30 11 55 20 57 22 2 1 -6 37 -18 79 -14 51 -58 143 -131
277 l-109 200 0 113 0 113 -76 -20 c-60 -15 -91 -30 -150 -75 l-74 -55 0 -130
c0 -100 -3 -129 -12 -125 -7 2 -50 19 -95 36 l-82 32 -91 -18 -91 -18 -77 -95
-77 -94 -130 -19 -129 -18 -132 -94 -133 -95 -123 0 c-183 0 -390 40 -508 98
-19 9 -36 20 -38 24 -2 3 -38 29 -80 56 -75 49 -80 51 -205 68 l-129 18 -74
-37 c-41 -20 -109 -44 -151 -52 -43 -9 -85 -17 -95 -19 -9 -2 -86 50 -185 128
l-168 131 -36 176 c-25 121 -43 186 -57 207 -20 28 -22 42 -22 197 l0 168 75
94 76 93 187 94 188 94 139 6 c77 4 167 9 200 11 33 2 141 7 240 10 232 8 241
9 324 51 60 30 79 47 145 128 l75 94 -18 54 -17 53 -376 151 -375 151 -112 93
c-119 100 -111 87 -147 235 -9 39 -23 75 -30 81 -8 6 -14 26 -14 45 0 31 8 40
78 91 l77 58 145 0 145 0 230 -76 230 -77 282 -168 281 -169 281 0 281 0 228
-113 c186 -93 267 -127 445 -187 l217 -72 0 -96 c0 -74 -4 -99 -16 -113 -15
-17 -15 -27 1 -131 17 -110 17 -116 -3 -213 -11 -59 -19 -135 -18 -185 l1 -85
85 -1 c74 -2 229 -26 251 -40 5 -3 70 -80 145 -172 80 -98 163 -189 201 -220
37 -29 71 -58 77 -66 15 -17 318 -209 331 -209 21 0 194 15 280 23 50 6 98 10
109 10 16 0 17 6 12 43 -3 23 -8 62 -11 87 -21 172 -47 253 -136 430 -48 96
-105 200 -125 230 -20 30 -101 168 -181 307 -119 208 -145 261 -150 304 -5 47
-8 50 -20 34 -11 -16 -13 -6 -13 76 l0 95 63 61 c34 33 73 64 87 68 14 4 80
41 148 82 154 93 156 94 339 134 l153 33 72 92 73 93 153 1 152 0 70 -35 70
-35 170 0 c188 0 182 2 291 -72 l64 -43 165 -2 c130 -1 186 3 266 19 l101 20
54 111 c54 109 55 111 165 203 83 70 169 128 335 225 l224 132 229 58 229 57
93 93 93 92 127 19 c118 17 141 25 297 93 165 73 172 75 320 94 l150 20 138
-39 c136 -40 139 -40 306 -40 92 0 195 5 228 10 33 5 97 15 143 20 77 10 93
17 252 105 l171 94 242 55 242 56 200 -35 c468 -82 430 -72 530 -133 l90 -55
94 19 95 19 57 93 c48 78 70 103 131 148 71 54 73 57 90 122 10 37 17 72 15
78 -1 6 -58 60 -127 119 -104 88 -173 136 -407 276 l-282 169 -11 58 c-7 31
-15 74 -20 94 -7 33 -5 39 29 72 l36 35 137 2 c167 1 207 -10 329 -92 78 -52
94 -59 177 -73 51 -9 139 -16 197 -16 78 0 105 -3 105 -13 0 -8 41 -22 109
-38 l110 -25 88 34 c48 19 157 78 241 130 l152 95 0 155 0 155 -51 171 c-28
94 -58 196 -65 226 -8 30 -21 69 -28 85 -8 17 -20 56 -27 88 -12 56 -13 57
-48 57 -31 0 -45 9 -97 63 -71 72 -92 109 -101 174 -3 27 -12 60 -19 75 -8 15
-14 49 -14 75 0 26 -16 144 -36 261 l-35 214 -56 91 c-30 51 -70 131 -88 178
-19 48 -45 109 -59 137 -14 28 -26 58 -26 67 0 9 -16 57 -35 106 l-35 91 0
299 0 299 75 150 75 150 78 39 c59 30 95 41 152 46 41 4 102 11 135 15 109 13
128 11 175 -19z m-3695 -1469 c73 -26 107 -46 182 -106 51 -41 103 -76 115
-79 38 -9 289 -55 341 -63 26 -3 47 -11 47 -18 0 -6 -7 -48 -16 -93 -12 -58
-21 -84 -33 -87 -9 -2 -68 -12 -131 -21 l-115 -17 -18 -130 -19 -130 -75 -113
-75 -113 -61 -7 c-34 -4 -71 -9 -82 -11 -11 -1 -47 -6 -80 -9 -33 -4 -62 -8
-63 -10 -2 -2 -59 15 -125 38 l-122 42 -182 145 -182 145 -40 100 -41 100 0
145 0 146 114 94 115 95 228 -6 c225 -5 229 -6 318 -37z m2126 -69 l96 -37 37
-114 c21 -63 40 -126 42 -141 1 -14 8 -66 14 -116 6 -49 13 -104 16 -122 4
-27 -3 -43 -51 -107 -55 -72 -59 -75 -113 -86 -31 -7 -74 -16 -96 -20 -38 -8
-41 -7 -131 66 -93 74 -93 75 -184 238 -50 90 -91 174 -91 187 0 13 7 58 15
99 14 64 22 81 55 114 38 39 42 40 157 57 65 9 123 17 128 18 6 1 53 -15 106
-36z m10661 -880 c15 -13 18 -32 18 -113 0 -120 -5 -125 -130 -151 -90 -19
-92 -19 -131 1 l-39 20 0 92 0 92 37 38 37 38 95 0 c74 0 98 -4 113 -17z
m-18152 -1829 c21 -15 41 -40 51 -66 9 -24 26 -66 37 -93 l20 -50 -38 -95 -38
-95 -93 -38 -94 -38 -35 18 c-19 10 -70 51 -112 92 l-78 74 0 117 0 116 38 37
c35 34 46 38 147 56 120 20 108 23 195 -35z m-6282 -398 c207 -104 236 -135
332 -356 l71 -165 94 -95 94 -95 -19 -115 c-13 -78 -35 -159 -71 -255 -48
-130 -56 -144 -112 -202 -38 -39 -72 -65 -91 -69 -60 -13 -152 -67 -208 -122
l-58 -56 0 -191 0 -190 55 -145 c54 -142 55 -145 130 -220 l75 -75 0 -395 0
-394 -37 -114 -38 -113 -112 -93 -112 -93 -173 -42 c-95 -23 -188 -49 -206
-57 -57 -25 -355 -13 -499 21 -14 3 -41 37 -79 99 -55 91 -59 95 -145 145 -91
53 -132 99 -180 202 -9 19 -28 54 -43 77 -24 39 -26 49 -26 154 l1 113 77 207
77 207 129 93 c112 80 130 97 133 123 1 17 10 116 18 220 14 167 20 204 52
302 l37 112 -13 77 c-7 43 -17 87 -21 99 -6 14 -45 37 -135 74 -104 45 -144
68 -224 132 -72 57 -103 89 -117 120 -10 24 -26 50 -35 58 -36 35 -49 108 -49
270 l0 155 55 56 55 55 38 185 38 185 139 53 c131 50 280 91 333 92 12 0 46
-16 75 -35 l52 -34 120 35 c109 31 297 70 353 73 12 1 89 -32 170 -73z m24567
-73 l75 -37 -1 -96 c0 -93 -1 -96 -37 -150 l-37 -55 -113 -19 c-111 -19 -113
-19 -132 0 -12 12 -27 54 -39 112 l-19 93 87 74 c104 88 135 114 138 115 2 0
36 -17 78 -37z m449 -672 c29 -30 41 -54 57 -114 l19 -75 -36 -56 -37 -56
-115 0 c-155 0 -152 -3 -152 150 0 101 3 119 18 133 14 13 105 38 202 56 3 1
23 -16 44 -38z m-511 -1445 c21 -17 30 -40 45 -113 l18 -91 -76 -93 -75 -94
-114 -18 c-108 -18 -115 -18 -152 -1 -28 12 -39 23 -39 39 0 13 -6 28 -14 34
-18 15 -16 204 3 242 7 15 39 54 70 87 l56 61 90 3 c95 3 130 -7 188 -56z
m4252 -314 l150 -77 37 -73 37 -74 -20 -96 c-19 -94 -21 -99 -73 -151 l-54
-53 -193 1 -194 2 -88 88 c-98 97 -90 76 -88 242 l1 86 52 69 c28 38 52 70 52
71 1 2 201 38 226 41 3 1 73 -34 155 -76z m-3745 -227 l0 -74 -42 -11 c-24 -6
-57 -15 -75 -20 l-31 -8 -16 64 c-9 35 -16 69 -16 77 0 8 26 19 73 29 114 25
107 29 107 -57z m2117 -258 l93 -112 0 -211 c0 -256 -24 -445 -62 -493 -13
-16 -61 -74 -108 -129 l-85 -101 -180 0 -180 0 -142 72 -143 72 -95 115 -95
114 0 108 c0 106 1 110 39 186 34 65 61 98 183 218 98 98 174 162 243 208
l100 66 170 -1 170 0 92 -112z m-29284 -469 c9 -29 13 -55 9 -59 -4 -3 -29
-14 -55 -22 l-48 -16 -14 32 c-32 77 -31 83 17 100 68 24 72 22 91 -35z
m33212 -298 l57 -58 -17 -53 c-12 -35 -45 -88 -94 -151 l-76 -96 -75 -17
c-243 -54 -260 -59 -264 -74 -3 -9 -7 -52 -11 -96 -4 -44 -8 -93 -10 -110 -2
-16 -7 -57 -10 -90 -3 -33 -22 -102 -43 -154 l-36 -94 -116 -76 c-140 -94
-187 -114 -312 -135 -95 -16 -99 -16 -137 3 -35 19 -42 30 -94 153 l-56 133
19 125 c11 69 20 128 20 131 0 3 34 48 76 100 64 78 95 106 185 167 106 70
112 73 259 109 l150 37 0 56 c0 55 2 59 72 146 l71 89 171 5 c94 3 181 6 192
6 14 1 42 -19 79 -56z m635 -976 c83 -14 106 -23 188 -73 l94 -57 70 -174 c38
-96 80 -213 92 -260 l22 -85 -37 -80 c-29 -63 -53 -95 -111 -152 l-73 -72
-135 -19 c-132 -19 -135 -19 -190 0 -37 12 -85 43 -149 96 -88 72 -99 86 -167
202 l-73 125 -1 155 0 155 58 74 c52 68 66 80 157 127 55 29 114 53 131 53 17
1 73 -6 124 -15z m-1932 -869 c-6 -5 -123 -12 -135 -8 -8 3 -13 24 -13 58 0
60 -11 52 110 83 l35 8 3 -69 c2 -38 2 -71 0 -72z m-32038 -947 c6 -24 15 -58
20 -76 8 -31 7 -33 -49 -71 l-57 -39 -37 20 -38 19 3 76 3 77 65 17 c36 9 68
18 72 18 4 1 12 -18 18 -41z m-2037 -223 c32 -19 64 -35 71 -35 6 0 27 -16 46
-35 33 -34 34 -38 35 -113 l0 -77 -55 -57 -54 -58 -96 0 -96 0 -53 54 -54 55
7 58 c3 32 11 93 17 135 l11 76 57 15 c83 22 100 20 164 -18z m36838 -114 c9
-1 32 -25 51 -54 l35 -53 -37 -94 -38 -95 -96 -19 -97 -19 -35 34 -34 33 0
100 0 100 35 36 c34 35 35 35 117 33 46 0 90 -2 99 -2z m2704 -1583 l35 -53 0
-115 0 -115 -97 -96 -98 -96 -129 -17 -129 -17 -34 34 -35 34 1 138 0 139 108
108 108 108 117 0 117 0 36 -52z m3571 -413 c10 -30 16 -57 13 -59 -2 -2 -36
-20 -75 -39 l-71 -36 -17 82 c-9 45 -16 88 -16 95 0 8 22 12 74 12 l75 0 17
-55z m786 -120 c10 -49 15 -92 10 -96 -4 -4 -71 -63 -150 -131 l-142 -124
-111 -18 c-61 -10 -112 -16 -114 -14 -1 2 -19 35 -39 75 l-36 72 166 148 165
148 87 17 c48 9 101 16 117 15 30 -2 30 -3 47 -92z m2788 -111 l0 -54 -95 0
-95 0 0 40 c0 22 3 40 8 41 4 0 43 8 87 18 44 9 83 15 88 13 4 -2 7 -28 7 -58z
m-49504 -385 c48 -39 140 -106 203 -149 104 -69 131 -94 264 -243 l147 -165 0
-269 0 -268 -121 -155 c-147 -189 -176 -220 -206 -220 -13 0 -86 -31 -163 -70
l-140 -70 -210 0 -211 0 -110 92 c-90 75 -139 128 -260 279 l-148 186 -20 171
c-14 124 -17 188 -11 234 5 35 11 95 15 133 11 126 16 139 73 234 l57 93 167
94 c154 85 175 94 260 109 51 9 136 24 188 34 52 10 105 19 116 20 13 0 57
-28 110 -70z m48195 -825 l37 -36 -35 -86 c-19 -48 -40 -92 -46 -98 -7 -6 -41
-18 -77 -27 -63 -16 -65 -15 -87 5 -14 13 -28 48 -39 95 l-18 74 37 37 c27 27
54 41 100 54 86 22 87 22 128 -18z m-46001 -39 c78 -39 73 -25 45 -135 l-11
-45 -77 -3 -76 -3 -10 38 c-5 21 -14 54 -19 73 -9 32 -6 38 26 73 20 20 40 37
44 37 5 0 40 -16 78 -35z m1004 -128 l75 -93 -19 -73 c-10 -40 -20 -75 -22
-77 -6 -6 -147 -34 -171 -34 -14 0 -43 21 -75 53 -45 46 -54 62 -71 127 l-19
75 39 40 c31 32 53 43 106 56 38 10 71 18 75 18 4 1 41 -41 82 -92z m43126
-715 l74 -18 19 -93 19 -94 -73 -73 -73 -74 -97 0 c-116 0 -127 8 -155 118
l-18 73 89 89 c100 101 96 99 215 72z m-40358 -49 l38 -37 0 -97 0 -97 -47
-16 c-63 -22 -65 -21 -128 20 l-55 37 0 93 0 93 38 10 c20 5 53 14 72 19 19 6
37 11 40 11 2 1 21 -16 42 -36z m39458 -563 c0 -34 -4 -42 -30 -55 -16 -8 -33
-15 -37 -15 -7 0 -9 64 -4 103 1 4 17 7 36 7 34 0 35 -1 35 -40z m-36820 -189
c10 -39 17 -71 17 -72 -8 -5 -68 -7 -89 -3 -26 5 -28 9 -28 58 0 50 2 53 37
73 21 12 39 20 41 18 2 -2 12 -35 22 -74z m-7311 -675 c28 -29 36 -49 53 -130
l19 -95 -37 -55 -37 -56 -94 0 c-124 0 -164 19 -187 86 -9 26 -16 55 -16 63 0
17 58 170 69 183 8 10 126 36 167 37 22 1 39 -8 63 -33z m44541 -37 l0 -40
-37 3 c-29 2 -38 7 -37 21 1 9 2 26 3 37 1 16 8 20 36 20 34 0 35 -1 35 -41z
m-47113 -883 c23 -13 99 -73 170 -133 70 -61 227 -185 348 -276 l220 -166 36
-93 36 -93 44 -3 c33 -2 76 -21 168 -74 l125 -71 262 -38 c235 -34 267 -41
319 -69 112 -61 241 -153 318 -228 l77 -77 0 -316 0 -317 -65 -146 c-36 -81
-71 -159 -79 -174 -9 -17 -59 -58 -123 -100 l-108 -71 -160 -36 c-88 -20 -167
-37 -175 -37 -18 -1 -218 13 -240 17 -8 1 -60 6 -115 10 -55 4 -103 9 -107 11
-14 9 -163 240 -208 323 -25 45 -78 133 -119 194 -40 62 -73 121 -73 131 1 10
-8 36 -19 57 -16 33 -19 59 -19 187 l0 150 -74 56 c-46 34 -127 115 -209 208
-133 151 -286 298 -311 298 -23 0 -160 153 -272 305 l-111 150 -18 111 -17
111 36 54 c20 30 36 63 36 73 0 11 17 37 37 58 l37 38 156 0 c145 0 158 -2
197 -24z m46925 -574 c0 -37 -1 -70 -2 -73 0 -5 -123 -39 -141 -39 -9 0 -43
140 -35 147 7 7 170 41 175 36 3 -2 4 -34 3 -71z m-43980 -39 l38 -37 0 -90
c0 -78 -3 -93 -22 -113 -19 -21 -30 -23 -113 -23 l-91 0 -39 40 -38 39 19 93
19 93 75 17 c106 23 110 22 152 -19z m45218 -3108 l0 -75 -56 0 c-53 0 -56 1
-69 33 -33 80 -33 83 32 100 97 25 93 28 93 -58z m-190 -1140 l0 -55 -38 0
c-34 0 -40 4 -56 36 -9 20 -15 38 -13 40 6 6 81 33 95 33 8 1 12 -16 12 -54z
m-47796 -1790 l36 -55 -18 -110 c-11 -61 -21 -112 -24 -115 -6 -6 -145 -35
-171 -35 -29 0 -157 127 -157 157 0 26 29 165 36 172 4 4 208 38 245 40 9 1
32 -23 53 -54z m4560 -1121 c21 -31 36 -57 34 -59 -7 -7 -142 -74 -144 -72 -2
1 -11 35 -22 75 -14 52 -17 75 -8 78 64 23 92 33 97 33 3 1 23 -24 43 -55z
m-910 -2045 c3 -3 -10 -20 -28 -38 l-34 -33 -17 31 c-9 17 -14 35 -11 39 6 9
81 10 90 1z m44483 -633 c2 -1 11 -44 21 -94 l19 -91 -38 -58 -39 -57 -112
-18 -112 -18 -38 37 -38 37 0 95 0 95 56 57 55 56 112 -19 c61 -11 113 -20
114 -22z m1415 -1141 c42 -8 79 -15 81 -15 3 0 12 -43 22 -96 l17 -95 -36 -55
-36 -54 -99 0 c-81 0 -101 3 -113 18 -9 9 -25 60 -36 112 l-19 94 54 57 c34
35 60 55 71 53 9 -2 52 -10 94 -19z m-1041 -368 c-1 -4 -1 -27 -1 -52 l0 -45
-38 0 c-34 0 -40 4 -56 36 -9 20 -16 38 -14 39 2 1 23 9 48 18 46 16 62 17 61
4z m23 -4961 l-19 -76 -57 -19 c-55 -19 -59 -19 -94 -2 l-36 18 -2 96 c0 54 1
97 4 98 3 0 37 9 75 19 l70 18 39 -38 38 -38 -18 -76z m8 -842 l46 -15 11 -77
c30 -198 32 -184 -48 -337 -39 -76 -71 -147 -71 -158 0 -12 -19 -41 -42 -64
l-42 -43 -110 0 -110 0 -38 37 -38 37 0 95 c0 87 3 104 37 189 34 85 43 99
103 152 36 31 101 89 145 128 44 39 87 71 96 72 8 0 36 -7 61 -16z m504 -1322
c3 -15 10 -40 15 -56 18 -56 13 -64 -62 -102 l-72 -36 -20 21 c-18 18 -21 33
-22 110 0 103 -4 99 98 93 53 -4 58 -6 63 -30z m-4833 -1429 l36 -38 -16 -65
c-9 -36 -21 -70 -27 -76 -6 -6 -40 -18 -76 -27 -63 -15 -66 -15 -86 4 -15 14
-27 47 -39 110 -10 49 -16 91 -14 93 7 6 133 34 159 35 18 1 38 -11 63 -36z
m5237 -298 c0 -73 0 -75 -27 -81 -16 -3 -50 -12 -76 -19 l-48 -13 -20 39 c-19
39 -19 41 -3 94 l18 55 78 0 78 0 0 -75z m-6360 -70 c57 -19 107 -41 112 -47
4 -7 8 -27 8 -45 0 -33 15 -52 23 -31 3 7 6 -30 6 -82 l1 -94 -37 -38 -37 -38
-116 0 c-115 0 -115 0 -166 34 l-52 35 -4 103 c-5 111 1 145 29 155 10 3 40
24 67 45 27 21 52 38 55 38 4 0 54 -16 111 -35z m1563 -60 c43 -8 80 -15 82
-15 1 0 10 -60 20 -133 l17 -134 -37 -56 -38 -57 -93 0 -93 0 -20 68 c-11 37
-28 97 -38 133 l-17 66 53 72 c29 39 60 71 69 71 10 0 52 -7 95 -15z m-1619
-1401 c10 -41 16 -77 15 -78 -2 -2 -36 -20 -75 -39 l-71 -36 -20 22 c-22 24
-60 153 -49 165 6 6 138 37 172 41 6 1 18 -33 28 -75z m-41164 -115 l0 -40
-37 3 c-36 3 -38 5 -39 41 -1 36 0 37 38 37 38 0 38 0 38 -41z m38755 -165
l140 -17 78 -76 77 -76 0 -115 -1 -115 -92 -72 -92 -73 -113 0 c-162 0 -176 8
-248 151 l-55 111 16 96 c9 54 18 105 21 115 5 17 100 87 119 87 5 0 73 -7
150 -16z m-34590 -865 c73 -14 69 -4 38 -116 -14 -51 -15 -53 -69 -70 l-54
-17 -39 38 c-35 34 -38 41 -31 69 5 18 14 52 20 76 11 41 13 43 41 37 16 -3
58 -11 94 -17z m36966 -353 l84 -34 3 -92 c4 -121 -4 -131 -130 -155 l-90 -18
-23 24 c-19 20 -100 199 -92 204 1 1 33 25 71 53 38 29 74 52 81 52 6 0 49
-15 96 -34z m-7391 -3665 c0 -38 -1 -40 -51 -56 -28 -9 -52 -15 -53 -14 -6 8
-13 98 -8 104 3 3 29 5 59 5 l53 0 0 -39z m-19298 -1795 l37 -75 -57 -11 c-31
-7 -74 -15 -95 -20 -27 -6 -39 -5 -42 3 -8 29 -34 142 -32 143 5 3 124 32 137
33 10 1 30 -27 52 -73z"/>
<path d="M9280 25115 c0 -2 -24 -136 -54 -297 l-54 -293 18 -129 c16 -106 23
-133 43 -155 13 -14 81 -90 150 -169 l127 -142 0 -112 0 -111 -57 -76 c-50
-66 -58 -85 -74 -160 -10 -48 -18 -90 -19 -94 0 -4 25 -20 56 -34 53 -24 60
-25 110 -14 33 8 54 18 54 26 0 29 223 73 450 88 35 2 35 2 38 54 3 47 -1 59
-37 111 -37 55 -177 368 -400 897 -53 127 -135 312 -181 411 -81 177 -84 182
-120 193 -41 12 -50 13 -50 6z"/>
</g>
</svg>
