<?xml version="1.0" standalone="no"?>
<!DOCTYPE svg PUBLIC "-//W3C//DTD SVG 20010904//EN"
 "http://www.w3.org/TR/2001/REC-SVG-20010904/DTD/svg10.dtd">
<svg version="1.0" xmlns="http://www.w3.org/2000/svg"
 width="1600.000000pt" height="1600.000000pt" viewBox="0 0 1600.000000 1600.000000"
 preserveAspectRatio="xMidYMid meet">

<g transform="translate(0.000000,1600.000000) scale(0.100000,-0.100000)"
fill="#000000" stroke="none">
<path d="M0 8000 l0 -8000 8000 0 8000 0 0 8000 0 8000 -8000 0 -8000 0 0
-8000z m10935 6764 c22 -14 41 -54 26 -54 -4 0 -18 -24 -32 -52 -28 -62 -27
-60 -76 -117 -40 -46 -110 -85 -136 -75 -25 9 -48 70 -46 120 5 81 78 113 120
52 12 -18 24 -35 26 -37 1 -2 9 2 18 9 20 16 19 79 -1 109 -13 18 -14 28 -5
48 10 22 16 24 48 18 20 -3 46 -13 58 -21z m-3165 -19 c34 -30 25 -87 -23
-141 -33 -38 -83 -74 -101 -74 -3 0 -12 23 -21 52 -21 71 -12 110 36 153 44
39 74 42 109 10z m1455 16 c3 -6 -4 -15 -15 -21 -17 -9 -20 -8 -20 10 0 20 24
28 35 11z m1318 -123 c15 -15 27 -32 27 -38 0 -24 -79 -123 -113 -141 -14 -8
-19 -5 -27 15 -5 14 -18 26 -32 28 -47 6 -15 111 45 148 40 25 65 22 100 -12z
m527 -85 c0 -36 3 -43 20 -44 43 -3 94 -31 116 -64 27 -42 0 -153 -41 -169
-31 -12 -81 -6 -118 14 -41 22 -82 25 -123 10 -31 -12 -44 -1 -44 38 0 32 25
70 82 122 49 45 62 77 67 159 1 11 6 10 21 -4 14 -13 20 -31 20 -62z m-7007
-66 c-7 -11 -23 12 -23 33 1 12 4 11 15 -4 8 -10 12 -23 8 -29z m-435 3 c37
-23 78 -76 87 -112 4 -15 24 -47 45 -70 20 -24 44 -57 54 -75 19 -38 47 -153
40 -165 -3 -5 2 -40 10 -78 9 -38 19 -101 22 -139 l6 -69 -38 -12 c-22 -7 -47
-21 -57 -31 -19 -21 -52 -25 -62 -9 -4 6 -11 8 -16 5 -5 -4 -9 -1 -9 6 0 7 -3
9 -6 6 -4 -3 -16 -1 -28 5 -11 7 -24 13 -28 14 -5 1 -9 2 -10 4 -2 1 -10 3
-18 5 -8 2 -35 11 -60 20 -25 9 -52 18 -60 21 -8 3 -17 6 -20 6 -3 1 -26 12
-51 25 -81 40 -106 93 -114 245 -3 62 -10 147 -16 188 -10 74 -9 106 5 145 28
75 48 84 193 83 80 0 108 -4 131 -18z m1257 -2 c3 -2 8 -19 11 -36 6 -30 5
-32 -24 -32 -19 0 -41 10 -61 29 -45 43 -41 54 19 49 28 -3 53 -7 55 -10z
m2815 -40 c0 -25 -40 -58 -69 -58 -22 0 -10 40 17 54 34 19 52 20 52 4z m2091
2 c25 -14 24 -35 -3 -54 -30 -21 -35 -20 -53 8 -29 43 6 72 56 46z m-5225 -65
c9 -14 25 -69 34 -123 22 -117 25 -126 53 -140 22 -11 95 -32 110 -31 11 0 57
-49 57 -61 0 -5 -9 -31 -19 -57 -37 -95 -12 -183 80 -281 55 -57 109 -138 143
-215 14 -33 36 -62 53 -73 37 -23 83 -65 83 -77 0 -21 64 -98 108 -131 27 -20
60 -52 73 -71 13 -19 42 -48 64 -63 22 -15 51 -37 65 -49 14 -13 28 -23 32
-23 5 0 47 -30 94 -66 48 -36 102 -73 120 -82 19 -8 34 -20 34 -24 0 -5 4 -7
9 -4 5 3 14 -1 21 -9 7 -8 16 -12 21 -9 5 3 9 0 9 -7 0 -7 3 -10 6 -6 4 3 21
-1 38 -10 22 -12 56 -17 121 -17 100 0 143 14 235 78 29 20 71 41 93 48 23 6
54 20 69 30 37 25 50 23 99 -17 69 -59 78 -61 254 -71 55 -3 119 -12 143 -20
23 -8 46 -14 50 -14 5 0 6 27 4 59 l-4 60 57 -15 c31 -8 58 -14 60 -12 2 2 14
91 17 135 1 6 20 20 42 30 23 10 47 23 54 30 26 25 52 14 80 -32 15 -25 29
-45 33 -45 5 0 31 90 31 107 -1 5 7 16 15 26 17 18 45 19 77 1 35 -21 128
-119 147 -156 l19 -38 -40 -25 c-22 -14 -40 -33 -41 -43 -1 -9 -2 -37 -3 -62
-1 -38 -5 -47 -29 -58 -22 -11 -26 -17 -17 -27 6 -8 24 -16 39 -20 30 -6 59
-29 84 -66 18 -24 42 -27 113 -11 27 6 87 16 133 22 52 6 105 20 140 37 48 22
70 26 156 28 171 2 250 17 340 63 104 52 186 76 362 106 337 59 441 68 753 70
270 1 314 -1 375 -18 147 -42 165 -45 287 -45 l126 -1 15 -42 14 -43 214 -1
c223 -2 254 -7 288 -48 9 -10 30 -16 56 -16 102 0 127 -19 127 -94 0 -67 14
-88 96 -143 64 -43 226 -135 235 -132 1 0 9 -2 17 -5 70 -23 114 -36 139 -41
17 -3 42 -10 56 -15 39 -15 110 -12 152 5 70 30 119 -1 148 -92 19 -57 10 -53
111 -58 84 -5 125 -39 150 -122 17 -59 33 -73 148 -133 l74 -38 8 27 c4 14 8
29 8 32 2 14 68 61 97 69 17 5 90 10 163 12 121 2 135 1 181 -22 28 -13 55
-29 61 -34 6 -6 28 -20 50 -31 21 -11 41 -22 44 -25 3 -3 26 -18 52 -33 132
-76 341 28 388 194 7 25 4 30 -26 48 -37 22 -40 34 -19 71 8 14 14 49 15 78
l0 54 38 -3 c29 -3 49 -15 95 -59 32 -30 79 -67 105 -82 79 -46 101 -88 64
-122 -15 -12 -19 -33 -21 -84 -1 -37 -3 -74 -4 -84 -5 -32 -85 -86 -169 -114
-85 -27 -171 -66 -198 -89 -8 -7 -38 -20 -67 -29 -38 -13 -66 -32 -110 -77
-32 -33 -77 -71 -101 -85 -23 -14 -54 -43 -68 -66 -18 -29 -40 -46 -74 -61
l-48 -20 80 -156 c57 -113 86 -184 104 -256 14 -55 43 -149 65 -209 30 -81 41
-128 45 -190 10 -171 14 -214 27 -300 17 -106 15 -218 -9 -421 -7 -66 -19
-113 -59 -245 -33 -108 -34 -195 -5 -319 28 -118 37 -139 95 -225 l46 -69 -1
-166 c-2 -161 -8 -211 -42 -326 -8 -27 -16 -79 -17 -115 -2 -73 17 -116 66
-147 53 -33 80 -72 103 -151 13 -42 28 -80 34 -84 6 -4 33 -8 60 -8 70 0 103
-30 172 -152 32 -56 75 -119 96 -140 34 -35 58 -69 58 -82 0 -3 -22 -15 -50
-27 -27 -12 -50 -25 -50 -28 0 -10 -67 -41 -87 -41 -44 0 -92 -24 -102 -51 -5
-15 -8 -29 -6 -31 2 -2 -5 -14 -15 -28 -16 -21 -25 -24 -70 -22 -39 2 -60 9
-82 27 -25 21 -37 27 -50 24 -2 0 -20 7 -42 16 -21 9 -40 14 -43 11 -11 -11
48 -118 82 -149 34 -31 36 -38 36 -88 -1 -70 -3 -81 -24 -112 -9 -15 -17 -29
-17 -32 0 -4 -7 -13 -15 -21 -26 -26 -17 -55 48 -153 35 -53 76 -116 91 -141
15 -25 49 -81 77 -125 57 -92 81 -164 78 -230 -3 -44 -5 -47 -46 -65 -43 -19
-43 -19 -43 -69 0 -48 -2 -51 -25 -51 -19 0 -32 11 -55 48 -16 26 -39 53 -51
60 -105 65 -124 65 -156 5 -12 -24 -20 -43 -17 -43 2 0 0 -9 -6 -20 -9 -17
-21 -20 -73 -20 -65 0 -83 -7 -173 -67 -26 -18 -51 -33 -55 -33 -4 0 -13 16
-19 35 -19 57 -51 75 -136 75 -60 0 -78 -4 -93 -19 -18 -18 -41 -79 -41 -109
0 -20 -30 -74 -57 -103 -13 -14 -26 -38 -29 -54 -12 -68 -51 -117 -123 -157
-17 -9 -45 -37 -63 -63 -22 -31 -49 -54 -88 -73 -64 -31 -110 -74 -110 -103 0
-22 -6 -25 -72 -34 -46 -6 -47 -7 -37 -33 6 -15 17 -55 25 -90 14 -60 14 -64
-7 -93 -14 -20 -23 -51 -26 -92 -3 -34 -14 -76 -24 -93 -27 -45 -24 -69 14
-98 88 -71 105 -88 113 -116 l9 -31 35 19 c19 10 71 42 115 70 99 63 158 81
218 65 177 -48 363 -183 492 -358 67 -90 107 -135 115 -130 5 3 10 1 12 -4 1
-5 17 -11 35 -14 84 -13 212 -114 198 -156 -5 -16 -15 -21 -41 -21 -28 0 -46
11 -99 60 -35 33 -68 60 -72 61 -111 9 -167 34 -244 112 -57 56 -104 85 -154
93 -29 4 -31 2 -43 -42 -8 -28 -26 -60 -46 -80 -29 -29 -41 -34 -83 -34 -51 0
-54 2 -155 80 -15 12 -30 21 -32 21 -3 0 -11 1 -18 3 -7 3 -26 7 -43 10 -16 4
-40 9 -52 11 -28 6 -28 9 -1 -62 39 -107 96 -176 246 -302 61 -51 149 -157
212 -256 25 -38 70 -103 102 -143 80 -101 131 -194 125 -229 -9 -54 -18 -65
-45 -58 -78 19 -156 119 -218 277 -57 148 -72 174 -121 213 -21 17 -85 77
-143 135 -113 113 -219 207 -278 248 -30 21 -49 26 -102 27 l-65 0 -15 47 c-8
25 -24 56 -35 68 -23 25 -94 69 -122 75 -10 2 -26 7 -37 11 -18 7 -18 3 -11
-62 17 -160 62 -273 159 -397 24 -32 52 -80 61 -107 9 -28 22 -50 28 -51 19
-1 61 -9 75 -14 17 -6 52 -84 45 -102 -3 -7 -19 -13 -35 -13 -29 0 -30 -1 -23
-37 3 -21 31 -100 61 -175 29 -76 63 -179 74 -230 21 -96 33 -119 126 -243 29
-39 68 -92 86 -117 18 -26 60 -84 93 -130 33 -46 89 -114 125 -153 59 -63 217
-285 262 -368 42 -76 -9 -116 -70 -56 -18 18 -80 103 -137 188 -57 86 -112
165 -122 176 -10 11 -31 38 -48 60 -26 35 -299 357 -348 410 -10 11 -52 64
-94 119 l-76 98 17 34 c30 64 17 109 -55 195 -107 130 -191 279 -269 484 -11
28 -44 56 -70 58 -13 1 -42 23 -68 52 l-45 50 -30 -27 c-34 -33 -83 -48 -153
-48 l-51 0 30 -113 c16 -61 33 -117 39 -124 5 -7 28 -21 51 -32 61 -30 132
-101 218 -221 41 -58 98 -136 125 -175 28 -38 66 -108 85 -155 33 -81 106
-205 185 -315 33 -46 36 -54 31 -104 -6 -58 -28 -91 -62 -91 -27 0 -50 25
-110 120 -26 41 -53 78 -59 83 -6 4 -34 4 -61 1 -42 -5 -54 -2 -74 15 -23 20
-23 23 -11 60 32 99 -34 231 -125 248 -38 7 -63 -7 -100 -57 -20 -27 -43 -50
-50 -50 -8 0 -20 18 -26 40 -11 38 -67 100 -89 100 -5 0 2 -30 15 -67 25 -75
135 -356 140 -361 10 -10 45 12 45 28 0 24 37 50 59 42 48 -18 53 -68 11 -115
-37 -43 -39 -89 -9 -197 26 -97 45 -134 72 -149 56 -31 128 -177 146 -301 28
-180 42 -216 108 -276 42 -39 45 -46 48 -96 2 -44 11 -69 43 -124 50 -83 157
-345 173 -422 13 -62 6 -72 -49 -72 -48 0 -70 29 -190 250 -58 107 -135 250
-172 317 -37 68 -75 149 -84 180 -9 32 -26 76 -37 98 -21 40 -21 65 0 118 14
37 15 37 -12 37 -29 0 -53 25 -69 71 -6 19 -22 52 -36 73 -39 62 -51 100 -58
173 -5 56 -16 89 -65 188 -32 66 -59 126 -59 133 0 20 -46 105 -67 123 -10 8
-47 48 -83 89 -36 40 -87 96 -115 125 -51 53 -156 135 -174 135 -5 0 -11 3
-13 8 -5 12 -109 95 -136 109 -28 15 -33 16 -30 6 1 -5 -7 -24 -17 -43 -16
-29 -20 -59 -22 -175 -3 -147 -16 -213 -46 -246 -51 -55 -82 25 -89 233 -4
114 -9 154 -22 173 -9 14 -21 23 -26 20 -6 -4 -10 -3 -10 2 0 4 -15 15 -32 22
-58 26 -88 74 -133 211 -34 104 -59 155 -123 248 -27 39 -55 92 -62 117 -7 25
-18 46 -24 47 -6 0 -23 2 -38 3 -48 4 -86 26 -114 68 -37 59 -65 87 -83 87 -9
0 -28 -21 -43 -46 -21 -34 -40 -50 -75 -65 -27 -11 -64 -29 -83 -39 -19 -10
-57 -24 -85 -31 -27 -7 -129 -51 -225 -97 -240 -116 -304 -140 -425 -162 -57
-11 -119 -27 -137 -36 -18 -9 -89 -74 -158 -144 -69 -70 -136 -131 -149 -135
-45 -14 -88 3 -127 50 -45 56 -66 57 -89 6 -34 -77 -99 -115 -202 -120 l-53
-2 -54 84 c-78 121 -97 132 -202 112 -39 -7 -46 2 -111 126 -27 52 -65 116
-84 142 -31 41 -38 46 -74 46 -58 1 -66 -7 -61 -67 3 -28 1 -54 -4 -57 -5 -3
-42 -8 -82 -11 -56 -5 -76 -3 -85 7 -6 8 -14 47 -17 88 -9 99 -16 111 -71 111
-24 0 -47 -4 -50 -10 -7 -11 -26 -8 -65 7 -40 16 -147 15 -199 -2 -56 -18 -89
-59 -140 -170 -26 -57 -40 -76 -77 -99 -25 -16 -65 -31 -90 -34 -39 -4 -44 -2
-44 16 0 37 17 66 69 120 42 43 51 60 51 88 0 93 -61 122 -121 58 -19 -19 -46
-41 -60 -49 -23 -13 -28 -12 -52 11 -26 23 -26 25 -11 66 19 54 12 58 -91 58
-126 0 -152 -22 -322 -274 -60 -87 -118 -165 -130 -173 -51 -33 -93 4 -93 84
0 57 6 70 54 102 32 22 44 39 55 77 8 26 35 82 61 123 26 42 50 86 54 99 4 12
12 22 17 22 5 0 9 5 9 11 0 5 9 31 21 56 11 25 19 47 17 49 -7 7 -76 -16 -86
-29 -5 -6 -17 -33 -27 -59 -22 -60 -38 -74 -118 -102 -58 -20 -104 -24 -159
-13 -33 6 -77 47 -113 102 -19 31 -42 58 -51 62 -18 7 -118 -14 -149 -31 -27
-15 -65 -48 -65 -56 0 -12 -230 -239 -314 -310 -79 -68 -186 -191 -186 -216 0
-8 -4 -14 -9 -14 -5 0 -16 -18 -25 -40 -9 -22 -20 -40 -26 -40 -5 0 -10 -6
-10 -14 0 -8 -6 -16 -13 -19 -7 -3 -31 -31 -53 -63 -21 -33 -45 -65 -52 -72
-6 -7 -12 -19 -12 -26 0 -8 -7 -19 -15 -26 -8 -7 -13 -16 -10 -20 3 -5 1 -10
-4 -12 -11 -4 -74 -128 -65 -128 4 0 2 -6 -4 -12 -5 -7 -15 -33 -21 -58 -32
-130 -44 -142 -96 -97 -21 18 -26 31 -27 72 -2 67 8 92 42 110 16 8 40 30 53
47 34 46 177 334 170 342 -4 3 -1 6 5 6 7 0 12 6 12 14 0 7 11 34 25 60 13 25
24 47 23 49 -4 4 96 202 107 209 5 4 6 8 2 8 -5 0 5 18 22 39 17 21 31 42 31
45 0 17 140 186 203 245 72 67 180 142 266 186 47 24 94 53 103 64 20 23 71
121 66 126 -2 1 -27 5 -57 8 -65 7 -96 33 -105 86 -3 21 -28 81 -55 134 -28
52 -57 120 -66 150 l-16 54 -61 -24 c-63 -26 -77 -26 -218 -8 -25 3 -64 8 -86
11 -23 3 -49 13 -59 24 -26 29 -69 17 -149 -43 -39 -30 -91 -66 -116 -82 -25
-16 -84 -68 -131 -116 -82 -83 -115 -108 -166 -123 -34 -11 -21 11 50 85 34
35 78 91 97 124 30 51 54 73 170 158 74 54 139 102 143 106 15 15 19 72 6 87
-22 27 -63 14 -184 -59 -178 -107 -311 -168 -384 -174 -51 -5 -61 -3 -61 10 0
15 135 97 208 126 17 8 32 16 33 20 6 50 11 55 152 126 104 54 107 56 107 89
0 19 -9 45 -22 61 -19 24 -20 31 -9 61 7 19 15 47 19 62 8 38 8 149 -1 158 -4
4 -38 0 -75 -9 -66 -16 -100 -20 -154 -18 -21 1 -27 6 -30 29 -5 41 28 96 101
172 86 88 103 112 92 123 -5 5 -47 11 -93 14 -76 4 -102 0 -307 -50 -258 -64
-242 -53 -260 -177 -10 -74 -23 -94 -68 -108 -45 -13 -269 -34 -298 -28 -11 3
-23 5 -26 5 -4 1 -9 7 -12 15 -10 25 48 70 174 136 111 58 158 96 165 133 2 6
5 26 8 42 22 117 30 153 43 172 7 13 10 23 6 23 -5 0 -2 4 5 9 7 4 15 14 16
22 2 8 8 27 14 42 34 82 -23 129 -84 69 -16 -15 -45 -45 -65 -67 -20 -22 -48
-51 -62 -64 l-27 -24 0 25 c0 15 15 45 35 70 64 80 84 120 92 188 13 110 9
161 -17 215 -36 77 -30 207 13 253 19 21 21 35 23 190 1 177 4 193 40 232 18
21 23 39 26 108 4 102 17 116 109 127 l61 7 -7 162 c-4 105 -11 163 -18 168
-22 14 -47 8 -47 -10 0 -10 -5 -23 -11 -29 -6 -6 -12 -17 -13 -24 -1 -8 -8
-32 -14 -54 -6 -22 -13 -64 -16 -94 -10 -98 -37 -116 -181 -120 -95 -2 -199
-17 -275 -38 -150 -42 -355 -165 -487 -291 l-72 -69 109 -10 c88 -9 119 -16
155 -37 50 -30 61 -55 51 -117 -13 -79 -82 -129 -229 -165 -137 -34 -181 -58
-303 -167 -179 -158 -237 -174 -251 -69 -4 33 -1 44 26 75 18 19 73 61 124 93
51 31 95 62 99 68 4 6 8 50 8 98 l0 86 -117 -45 c-76 -28 -153 -49 -217 -59
-55 -8 -102 -17 -106 -19 -4 -2 -76 -16 -161 -30 -188 -31 -259 -54 -340 -108
-120 -82 -144 -96 -171 -103 -18 -4 -28 -2 -28 5 0 6 52 54 115 106 112 94
144 128 149 159 1 8 9 23 18 33 30 34 58 94 58 124 0 17 5 39 11 50 17 33 2
57 -38 61 -39 3 -48 14 -34 37 10 16 47 18 132 6 l56 -7 44 44 c52 52 110 87
197 118 51 19 61 26 57 41 -12 37 5 66 45 78 22 6 79 30 127 53 150 69 544
192 758 234 44 9 81 17 83 19 1 1 -4 31 -12 66 -8 35 -22 127 -31 204 -17 142
-44 245 -90 336 -23 44 -29 49 -58 49 -41 0 -72 -22 -97 -68 -29 -54 -67 -94
-140 -145 -90 -62 -135 -80 -187 -72 -41 6 -43 8 -43 41 0 54 16 73 86 104 66
30 82 50 80 99 -1 19 -8 27 -33 33 -38 10 -69 47 -83 99 -10 35 -13 38 -35 29
-61 -23 -105 -52 -121 -80 -22 -37 -36 -42 -62 -24 -21 14 -21 35 -3 109 17
69 16 70 -89 70 -59 0 -104 5 -118 13 -12 7 -22 10 -22 6 0 -3 -6 -1 -14 5
-30 25 -108 24 -184 -3 -57 -20 -72 -22 -72 -11 0 8 26 28 59 44 59 30 116 85
105 102 -3 5 -1 9 3 9 14 0 43 90 43 131 0 28 -5 39 -25 49 -24 13 -104 105
-154 178 -13 18 -26 31 -28 28 -3 -3 -13 -1 -23 4 -17 9 -74 15 -270 25 -147
8 -166 11 -220 30 -66 23 -100 60 -100 107 0 96 50 145 140 139 30 -2 82 -5
116 -5 56 -1 63 2 94 32 58 59 109 64 163 18 22 -19 26 -29 21 -55 -4 -17 -21
-44 -40 -61 -38 -33 -45 -73 -16 -89 24 -13 88 -7 131 12 33 14 34 15 35 83 1
68 1 68 43 99 22 16 43 39 45 50 2 11 -5 52 -15 90 -26 98 -20 167 19 200 16
14 29 29 29 34 0 5 3 12 7 16 8 8 -7 61 -26 89 -28 43 -46 59 -181 162 -61 46
-105 86 -164 148 -36 38 -82 86 -101 106 -40 42 -81 66 -125 73 -50 8 -101 33
-123 62 -19 24 -22 40 -22 125 0 114 -12 149 -69 206 -42 43 -64 94 -40 94 21
0 137 -124 217 -231 39 -53 83 -104 97 -113 14 -9 53 -58 86 -109 68 -102 154
-192 264 -275 55 -41 70 -53 100 -78 17 -14 50 -37 75 -52 45 -27 46 -27 269
-30 l225 -4 -25 30 c-137 167 -159 197 -144 200 43 9 127 -62 198 -166 32 -48
107 -87 182 -96 93 -11 274 -11 284 -1 7 7 -12 21 -57 45 -121 62 -202 147
-202 212 0 54 41 73 329 148 l44 12 -6 61 c-3 34 -17 95 -31 136 -14 40 -23
77 -20 82 7 12 34 12 34 0 0 -4 44 -53 97 -107 115 -118 121 -113 74 54 -51
184 -66 302 -36 302 8 0 17 -11 21 -24 l6 -24 43 30 c72 51 151 41 189 -23 29
-49 15 -112 -34 -157 -22 -20 -33 -22 -102 -19 l-77 4 25 -66 c47 -124 85
-184 135 -208 24 -12 64 -25 89 -29 24 -4 59 -13 77 -21 18 -7 34 -12 35 -11
4 2 122 -51 171 -77 69 -37 204 -148 231 -190 21 -32 26 -51 26 -105 0 -73 20
-117 67 -147 15 -10 34 -23 41 -30 7 -7 25 -16 40 -19 15 -3 34 -8 42 -11 41
-13 108 -13 196 2 148 26 146 24 85 75 -36 30 -54 54 -61 81 -6 22 -14 38 -18
38 -4 -1 -9 -1 -12 1 -3 1 -16 3 -28 6 -22 4 -136 82 -173 118 -9 9 -21 16
-27 16 -7 0 -12 4 -12 8 0 5 -28 29 -62 54 -72 53 -108 86 -197 183 -91 100
-108 130 -135 236 -13 52 -27 102 -31 111 -9 23 -41 42 -96 58 l-46 13 5 67
c4 59 1 72 -21 107 -30 48 -141 125 -200 140 -106 26 -233 8 -272 -38 -14 -17
-25 -37 -25 -45 0 -7 -12 -21 -26 -30 -25 -17 -26 -16 -54 17 -21 27 -37 35
-65 37 l-37 3 7 -37 6 -37 -47 7 c-26 3 -51 12 -56 19 -4 6 -8 8 -8 2 0 -5 -4
-5 -8 2 -6 10 -31 24 -188 103 -27 14 -55 30 -63 35 -22 16 -91 86 -144 147
-31 35 -78 72 -125 99 -42 24 -79 43 -82 43 -3 -1 -18 9 -33 22 -16 13 -32 24
-35 24 -4 0 -24 16 -45 36 -33 31 -38 41 -34 70 8 56 29 68 121 69 45 0 97 -4
116 -8 19 -4 68 -10 108 -13 68 -6 72 -6 72 14 0 15 -12 25 -43 37 -73 28
-101 112 -56 169 18 22 28 26 74 26 46 0 57 -4 74 -26 11 -14 23 -41 27 -60 3
-19 7 -34 8 -34 1 0 24 -8 51 -18 57 -21 86 -21 164 -2 97 23 242 0 268 -43 4
-7 29 -27 54 -44 25 -17 58 -51 74 -75 43 -66 193 -263 216 -284 18 -16 37
-19 123 -19 111 0 101 4 196 -82 26 -24 50 -43 54 -43 4 0 16 -9 28 -20 12
-11 30 -20 39 -20 10 0 20 -4 23 -9 3 -5 23 -12 43 -16 21 -4 52 -10 68 -14
48 -10 248 -7 266 4 15 9 14 17 -12 80 -17 43 -29 89 -29 118 0 47 1 48 45 68
33 15 73 21 153 23 90 3 125 9 201 35 88 31 97 32 224 28 72 -2 141 -7 153
-11 18 -7 26 0 52 46 32 58 51 69 164 102 l58 17 -39 77 c-55 112 -57 122 -18
154 18 14 43 47 57 74 35 68 65 99 143 151 76 52 83 71 37 110 -36 30 -41 57
-7 48 21 -6 63 -47 97 -94 8 -11 30 -23 48 -26 33 -6 34 -5 27 27 -9 47 -191
414 -234 473 -21 28 -56 75 -79 107 -41 56 -110 169 -172 283 -39 73 -58 95
-79 95 -24 0 -58 58 -70 120 -11 52 -36 94 -51 85 -18 -11 -69 54 -89 114 -24
74 -56 125 -88 142 -13 7 -23 16 -23 21 0 4 -6 8 -13 8 -16 0 -82 68 -92 95
-4 11 -9 43 -12 72 -4 43 -2 57 16 79 18 23 21 40 21 120 l0 94 -27 5 c-81 17
-101 53 -58 104 33 38 68 41 91 6z m5020 -7 c50 -51 48 -157 -2 -197 -21 -17
-41 -21 -99 -21 -51 0 -76 4 -85 14 -14 18 -11 128 4 170 25 68 131 88 182 34z
m-5207 -34 c25 -32 27 -57 5 -78 -18 -19 -65 -21 -82 -4 -17 17 -15 74 4 92
23 23 50 19 73 -10z m4794 -4 c-3 -53 -22 -95 -68 -148 -36 -42 -38 -42 -57
-25 -20 18 -20 26 -3 113 7 38 70 92 103 88 22 -2 27 -8 25 -28z m1658 -56
c57 -26 59 -28 54 -58 -2 -17 -7 -65 -10 -106 -7 -87 -19 -104 -86 -124 -59
-18 -85 -11 -136 35 -87 79 -99 121 -46 165 15 13 27 35 29 54 6 50 20 60 81
60 38 0 74 -8 114 -26z m1094 16 c24 -9 26 -15 24 -53 -1 -23 -4 -47 -7 -54
-6 -17 -55 -25 -85 -14 -23 9 -27 16 -27 49 0 38 16 62 50 75 8 3 16 6 17 6 1
1 14 -4 28 -9z m-6072 -33 c4 3 7 -10 7 -30 0 -26 -6 -39 -20 -47 -17 -9 -22
-7 -31 17 -13 35 4 81 25 64 7 -6 16 -8 19 -4z m4523 -32 c-8 -47 -107 -210
-156 -257 -47 -46 -80 -49 -110 -11 -28 36 -26 135 3 193 21 41 41 49 77 30
14 -8 25 -2 56 26 42 41 66 52 107 53 27 1 28 -1 23 -34z m-2672 -12 c28 -36
34 -52 35 -91 1 -25 -4 -35 -24 -44 -20 -9 -28 -8 -44 6 -21 19 -41 86 -41
137 0 29 2 31 27 25 14 -4 35 -19 47 -33z m873 -5 c54 -25 96 -91 92 -146 -4
-53 -45 -131 -75 -142 -38 -15 -137 -14 -165 0 -50 27 -74 92 -63 167 5 36 16
56 50 90 38 38 49 43 88 43 25 0 58 -6 73 -12z m-3325 -78 c14 -10 31 -33 38
-50 10 -25 10 -34 -4 -55 -17 -26 -26 -29 -63 -19 -22 6 -53 66 -53 102 0 43
42 54 82 22z m5736 11 c22 -13 4 -61 -23 -61 -30 0 -42 40 -18 58 20 14 24 14
41 3z m-6530 -42 c7 -12 11 -23 8 -26 -7 -7 -25 6 -36 28 -15 27 11 26 28 -2z
m4889 -36 c13 -19 14 -29 4 -49 -10 -22 -16 -25 -39 -19 -29 7 -39 18 -48 53
-14 51 52 63 83 15z m-2217 8 c13 -26 13 -94 -1 -108 -14 -14 -42 -6 -57 17
-9 15 -8 28 8 65 21 49 34 56 50 26z m-1390 -81 c0 -14 -12 -12 -38 6 -14 9
-22 25 -22 42 l1 27 29 -33 c17 -18 30 -37 30 -42z m454 13 c4 -9 1 -20 -6
-24 -12 -7 -25 9 -27 34 -2 14 27 7 33 -10z m1674 -20 c78 -100 86 -172 19
-173 -12 0 -24 13 -34 40 l-16 39 -38 -19 c-69 -36 -109 -22 -109 36 0 47 8
62 49 89 54 37 93 33 129 -12z m1584 -10 c25 -23 25 -89 -1 -103 -34 -17 -68
-12 -85 15 -21 32 -20 47 5 79 23 30 54 33 81 9z m1543 5 c38 -17 45 -64 17
-115 -17 -31 -52 -38 -96 -19 -34 14 -36 18 -36 59 0 39 3 45 38 65 44 25 44
25 77 10z m-1816 -54 c-8 -10 -17 -11 -29 -4 -9 5 -21 6 -25 2 -9 -8 3 17 18
36 8 10 14 9 28 -4 14 -13 16 -20 8 -30z m2327 31 c4 -8 3 -26 0 -40 -6 -22
-12 -25 -51 -25 -43 0 -45 1 -45 30 0 17 7 33 18 39 26 16 72 13 78 -4z
m-3266 -25 c0 -24 -55 -56 -66 -38 -7 11 38 58 57 58 5 0 9 -9 9 -20z m4081
10 c10 -6 19 -17 19 -25 0 -14 -29 -35 -48 -35 -14 0 -23 30 -17 51 7 22 18
23 46 9z m-1894 -43 c26 -6 63 -51 69 -83 9 -47 -12 -99 -54 -134 -85 -70
-191 -12 -217 118 -7 37 36 77 115 106 13 5 54 2 87 -7z m303 -31 c0 -8 -7
-16 -15 -20 -8 -3 -15 -4 -15 -2 0 3 -3 11 -6 20 -4 12 0 16 15 16 12 0 21 -6
21 -14z m-4652 -11 c1 -1 5 -27 9 -56 7 -70 22 -92 79 -121 81 -40 106 -116
65 -197 -24 -47 -86 -102 -109 -97 -39 7 -72 27 -88 51 -25 38 -22 175 4 209
11 14 9 34 -12 111 -19 71 -20 87 -4 103 10 10 43 8 56 -3z m3442 -91 c0 -21
6 -42 15 -48 8 -6 18 -25 21 -43 5 -27 1 -37 -25 -63 -45 -46 -67 -37 -63 25
3 45 1 52 -29 75 -29 24 -30 29 -19 51 17 32 29 39 68 39 30 0 32 -2 32 -36z
m1818 -21 c-4 -36 -30 -65 -51 -57 -34 13 -5 84 34 84 16 0 20 -6 17 -27z
m956 -37 c18 -38 19 -39 1 -52 -16 -12 -21 -11 -38 3 -28 26 -39 51 -32 74 11
33 47 20 69 -25z m-5030 -72 c-2 -77 -5 -90 -30 -153 -14 -36 -19 -40 -26 -26
-6 9 -8 51 -5 93 5 84 7 94 27 135 22 45 35 26 34 -49z m2488 41 c3 -3 3 -17
0 -30 -3 -20 -10 -25 -33 -25 -24 0 -29 4 -29 23 0 13 3 27 7 30 8 8 47 9 55
2z m1538 -44 c133 -69 218 -148 270 -250 23 -47 21 -82 -8 -115 -13 -14 -16
-35 -15 -96 3 -67 -1 -84 -23 -126 -31 -59 -95 -124 -121 -124 -11 0 -28 7
-39 15 -25 19 -97 19 -134 0 -28 -14 -33 -14 -70 5 -22 11 -40 18 -40 15 0 -4
-6 -3 -12 2 -13 8 -18 9 -38 12 -5 0 -25 15 -44 32 -20 17 -48 32 -63 33 -80
6 -114 85 -44 101 l28 6 -29 75 c-29 76 -29 76 -12 127 21 66 47 116 73 144
25 26 37 68 22 77 -6 4 -11 16 -11 26 0 15 10 20 48 25 26 4 70 13 97 20 95
27 105 27 165 -4z m902 -6 c8 -18 8 -28 -1 -39 -31 -37 -81 -26 -81 18 0 49
62 65 82 21z m-7016 -49 c40 -61 40 -96 -1 -96 -27 0 -76 53 -71 78 8 43 19
72 27 72 5 0 25 -24 45 -54z m5559 7 c36 -39 57 -89 51 -121 -15 -82 -30 -102
-75 -102 -25 0 -31 4 -31 21 0 11 5 29 10 40 10 17 7 19 -32 19 -56 0 -70 10
-66 46 3 26 7 29 38 29 19 0 47 -4 62 -8 l27 -7 -19 55 c-22 64 -9 74 35 28z
m-619 -64 c57 -54 66 -134 19 -176 -28 -25 -122 -49 -158 -39 -36 9 -59 63
-56 136 2 65 16 85 65 99 45 13 105 3 130 -20z m-7341 -89 c21 -40 19 -67 -6
-80 -30 -17 -47 -6 -54 34 -14 72 29 106 60 46z m4446 -136 c0 -67 -24 -134
-47 -134 -13 0 -15 13 -13 73 1 39 6 78 12 85 5 6 7 12 3 12 -3 0 2 9 11 20
24 28 35 11 34 -56z m-3427 60 c21 -8 21 -38 0 -55 -24 -20 -38 13 -25 59 1 3
8 2 25 -4z m472 -26 c47 -35 60 -51 67 -80 13 -52 -67 -78 -112 -36 -36 33
-65 106 -51 124 18 21 62 17 96 -8z m4594 7 c7 -9 8 -15 2 -15 -5 0 -12 7 -16
15 -3 8 -4 15 -2 15 2 0 9 -7 16 -15z m4422 -14 c28 -35 22 -55 -27 -97 -66
-57 -104 -75 -127 -63 -24 13 -32 34 -22 57 4 9 7 20 6 23 -1 4 23 30 53 58
59 56 85 61 117 22z m-4812 -56 c0 -37 -6 -52 -35 -84 -19 -21 -58 -48 -85
-60 -47 -20 -51 -21 -75 -5 -44 28 -42 85 4 122 48 38 119 72 154 72 l37 0 0
-45z m-5225 25 c9 -14 46 -143 99 -347 47 -180 69 -234 106 -268 42 -38 66
-109 25 -75 -8 7 -15 10 -15 6 0 -7 -34 21 -102 83 -40 37 -52 56 -72 120 -13
42 -38 116 -56 164 -30 86 -67 237 -64 267 1 8 2 25 3 38 1 18 7 22 35 22 19
0 38 -5 41 -10z m265 -44 c0 -8 -4 -18 -10 -21 -5 -3 -10 -4 -10 -1 0 2 -3 11
-6 20 -4 11 -1 16 10 16 9 0 16 -6 16 -14z m3297 -3 c82 -54 121 -131 107
-212 -4 -25 -7 -49 -6 -53 3 -12 -70 -78 -92 -84 -43 -11 -144 13 -172 40 -36
37 -45 66 -43 143 1 43 6 84 12 91 5 6 6 12 3 12 -19 0 46 53 80 65 53 19 80
18 111 -2z m-509 -18 c34 -28 58 -101 46 -136 -4 -13 -8 -28 -9 -33 -1 -23
-58 -50 -116 -54 -45 -3 -63 -9 -72 -23 -7 -11 -15 -19 -18 -19 -3 0 -6 48 -6
106 l0 105 34 32 c57 54 96 60 141 22z m-4190 -25 c50 -68 31 -132 -37 -122
-41 6 -71 44 -71 91 0 45 14 61 55 61 23 0 37 -8 53 -30z m8677 10 c7 -12 -30
-50 -49 -50 -19 0 -29 30 -15 46 13 16 55 19 64 4z m3318 -40 c-9 -16 -28 -42
-41 -57 -13 -16 -31 -38 -40 -51 -23 -35 -37 -12 -22 35 16 49 67 103 98 103
23 0 23 0 5 -30z m-722 -70 c24 0 28 -4 27 -25 -2 -16 -12 -28 -30 -36 -40
-16 -66 -53 -84 -118 -24 -86 -35 -106 -69 -130 -35 -24 -57 -26 -87 -10 -26
14 -55 80 -63 144 -7 56 13 100 60 131 28 18 181 55 203 48 8 -2 27 -4 43 -4z
m-961 -52 c0 -15 -74 -196 -84 -207 -13 -15 -59 -100 -61 -111 0 -3 -8 -16
-17 -30 -9 -14 -22 -37 -29 -53 -12 -27 -48 -45 -68 -33 -14 9 -31 73 -31 118
0 29 6 41 25 54 27 18 55 13 55 -9 0 -8 6 -20 13 -26 11 -8 16 -5 25 15 7 14
12 29 12 35 0 6 9 29 19 52 11 24 23 56 27 72 4 17 17 48 30 71 13 22 21 44
17 47 -3 4 10 7 30 7 21 0 37 -1 37 -2z m-6390 -58 c0 -10 -41 -21 -51 -14 -5
2 -6 11 -3 18 5 14 54 10 54 -4z m7808 -5 c21 -16 23 -32 7 -67 -5 -13 -19
-18 -45 -18 -34 0 -39 3 -45 29 -13 60 33 91 83 56z m-1028 -40 c20 -24 25
-176 7 -199 -23 -31 -42 -13 -71 66 -37 101 -30 148 23 148 16 0 34 -7 41 -15z
m788 -37 c7 -7 12 -24 12 -40 0 -45 -57 -69 -100 -43 -17 11 -12 73 8 84 23
14 65 14 80 -1z m-3075 -19 c5 -9 7 -28 3 -42 -8 -33 -42 -36 -76 -9 -18 15
-22 25 -16 46 6 24 11 27 43 24 20 -2 40 -10 46 -19z m-8347 -46 c36 -26 84
-125 86 -177 2 -67 -53 -119 -128 -118 -93 2 -144 56 -144 152 0 47 5 63 28
92 36 46 82 79 107 75 11 -1 34 -12 51 -24z m2797 1 c12 -4 13 -12 4 -40 -12
-40 -43 -46 -57 -11 -6 17 -4 26 12 40 23 19 21 19 41 11z m2860 -28 c6 -16
-43 -69 -95 -102 -46 -29 -101 -33 -91 -6 7 18 16 26 101 85 59 40 77 45 85
23z m5228 -147 c21 -35 -57 -73 -101 -49 -19 10 -20 13 -7 33 22 34 91 44 108
16z m-9074 -65 c56 -41 76 -137 41 -189 -38 -54 -57 -68 -93 -70 -43 -3 -122
30 -161 66 -51 48 -43 157 16 197 30 20 44 23 102 20 48 -3 75 -10 95 -24z
m-2426 -5 c20 -20 64 -108 57 -113 -1 -2 -17 1 -35 6 -33 9 -66 51 -78 101 -6
23 -4 27 14 27 12 0 30 -9 42 -21z m13271 9 c42 -12 88 -58 88 -87 0 -29 -50
-94 -118 -153 -96 -85 -161 -83 -178 7 -7 37 0 121 12 165 20 67 102 96 196
68z m-10679 -184 c9 -3 12 -14 10 -29 -6 -29 -43 -41 -60 -19 -14 19 -7 41 15
47 10 3 18 5 19 6 1 0 8 -1 16 -5z m10327 -14 c25 -25 29 -130 5 -150 -21 -18
-61 10 -80 56 -20 47 -19 56 6 88 25 31 42 33 69 6z m-9752 -61 c1 -9 -7 -28
-19 -43 l-21 -27 -24 22 c-28 26 -29 36 -8 60 18 20 67 12 72 -12z m-324 -30
c42 -49 31 -109 -19 -109 -36 0 -58 33 -51 77 3 21 7 44 8 51 3 22 36 13 62
-19z m9721 -9 c10 -15 -16 -138 -30 -144 -36 -14 -63 83 -36 132 12 23 55 30
66 12z m-277 -66 c27 -18 30 -74 6 -99 -18 -17 -56 -16 -91 3 -28 15 -32 72
-7 96 20 20 63 20 92 0z m-9227 -61 c50 -30 54 -111 7 -146 -53 -39 -138 1
-138 66 0 54 23 77 98 96 2 1 17 -7 33 -16z m9309 -113 c3 -3 14 -10 25 -16
42 -23 31 -105 -18 -134 -46 -29 -78 -25 -120 14 -54 49 -47 104 16 132 30 13
86 16 97 4z m-9150 -69 c0 -21 -22 -33 -45 -25 -8 4 -15 15 -15 25 0 14 7 19
30 19 23 0 30 -5 30 -19z m-3240 -46 c0 -12 -6 -22 -15 -22 -9 0 -14 9 -13 22
1 12 8 22 15 22 7 0 13 -10 13 -22z m12696 -20 c16 -24 15 -26 -7 -45 -13 -10
-28 -19 -33 -20 -16 0 -46 32 -46 50 0 44 60 54 86 15z m-10368 -187 c30 -30
-9 -78 -63 -78 -28 0 -38 5 -47 26 -11 23 -10 29 11 45 26 21 81 25 99 7z
m-1754 -251 c9 -15 7 -21 -9 -33 -16 -12 -21 -12 -33 0 -18 18 -6 58 15 54 9
-2 21 -11 27 -21z m-954 0 c0 -20 -22 -37 -47 -37 -27 0 -29 12 -7 34 19 19
54 21 54 3z m1257 -107 c31 -17 62 -35 68 -40 7 -5 14 -7 17 -4 9 8 78 -62 78
-79 0 -36 -149 -84 -229 -73 -94 12 -113 20 -134 55 -21 36 -21 54 -1 93 43
83 107 98 201 48z m-468 -20 c9 0 40 -22 69 -49 56 -52 64 -79 36 -119 -41
-59 -234 11 -234 85 0 13 5 33 11 44 12 23 67 51 87 44 8 -3 21 -5 31 -5z
m-445 -19 c33 -28 13 -51 -43 -51 -33 0 -66 32 -57 55 7 19 75 16 100 -4z
m1318 -378 c55 -26 83 -62 73 -93 -4 -12 -20 -36 -36 -54 -32 -38 -50 -74 -63
-135 -10 -45 -51 -54 -83 -18 -11 12 -44 57 -72 99 -57 84 -59 101 -23 161 40
68 115 83 204 40z m-822 -127 c0 -2 3 -11 6 -20 5 -12 0 -16 -20 -16 -28 0
-29 1 -20 24 5 14 34 24 34 12z m11630 -271 c0 -12 -6 -30 -14 -40 -12 -16
-19 -18 -43 -10 -35 13 -42 46 -14 74 18 18 25 19 46 9 15 -7 25 -19 25 -33z
m513 -15 c20 -11 38 -19 39 -18 2 2 28 -12 60 -29 86 -49 109 -95 70 -144 -18
-21 -21 -22 -83 -10 -76 15 -163 55 -201 94 -43 43 -36 90 16 113 42 18 55 17
99 -6z m-11585 -118 c16 -11 6 -39 -19 -53 -16 -8 -21 -6 -28 13 -7 17 -5 26
7 36 18 14 23 14 40 4z m11185 -38 c3 -3 3 -12 0 -19 -6 -17 -33 -8 -33 11 0
14 21 19 33 8z m45 -165 c13 -8 17 -20 14 -36 -4 -20 -10 -24 -36 -21 -34 3
-46 29 -26 53 15 18 25 19 48 4z m229 -31 c50 -47 54 -135 7 -157 -82 -37
-190 26 -171 100 3 13 7 29 8 34 3 11 37 39 59 48 25 10 73 -2 97 -25z m333
-4 c0 -14 -12 -19 -23 -8 -9 9 4 35 14 28 5 -3 9 -12 9 -20z m-980 -110 c0
-10 -69 -34 -100 -34 -23 0 -30 4 -30 20 0 18 7 20 65 20 36 0 65 -2 65 -6z
m824 -50 c9 -23 8 -24 -14 -24 -11 0 -20 2 -20 4 0 12 13 36 20 36 4 0 11 -7
14 -16z m-592 -533 c20 -5 44 -15 52 -24 13 -13 13 -17 0 -36 -18 -26 -62 -28
-110 -5 -27 13 -34 22 -34 45 0 25 4 29 28 29 15 0 44 -4 64 -9z m-334 -63
c-3 -8 -24 -13 -58 -13 -34 0 -55 5 -57 13 -4 9 12 12 57 12 45 0 61 -3 58
-12z m614 -75 c94 -38 135 -114 98 -184 -10 -17 -20 -20 -75 -18 -55 2 -70 6
-101 32 -36 30 -73 95 -74 130 0 52 73 72 152 40z m347 -9 c21 -27 45 -88 39
-104 -5 -14 -60 18 -87 51 -16 21 -21 37 -17 54 8 33 39 32 65 -1z m439 -24
c28 -26 37 -62 22 -90 -9 -17 -19 -21 -48 -19 -76 5 -118 52 -93 105 9 20 18
24 54 24 30 0 50 -6 65 -20z m-823 -437 c16 -16 16 -17 -1 -30 -22 -16 -44 0
-37 27 6 24 16 25 38 3z m405 -123 c18 -33 3 -60 -31 -60 -36 0 -60 39 -39 65
18 22 57 19 70 -5z m-12300 -188 c0 -4 -4 -13 -8 -19 -12 -20 -45 7 -37 30 6
13 11 14 26 6 10 -5 19 -13 19 -17z m-398 -108 c-3 -17 -11 -24 -28 -24 -19 0
-23 4 -20 23 3 12 5 25 5 28 1 3 12 4 24 2 19 -4 23 -10 19 -29z m559 -15 c10
-20 12 -82 3 -115 -11 -42 -115 -61 -149 -27 -27 27 -15 110 20 140 34 29 110
30 126 2z m11271 -16 c26 -23 -1 -47 -42 -38 -29 6 -33 17 -21 63 2 7 47 -11
63 -25z m-10435 -154 c17 -17 -5 -48 -29 -41 -25 6 -25 52 0 52 10 0 23 -5 29
-11z m10502 -176 c-13 -36 -35 -64 -42 -56 -8 8 -9 56 -1 76 3 9 14 12 29 9
21 -4 23 -7 14 -29z m-10813 -183 c23 0 16 -27 -8 -34 -35 -9 -38 -8 -38 20 0
20 4 25 16 20 9 -3 22 -6 30 -6z m11439 -217 c37 -24 43 -32 38 -53 -3 -14 -7
-27 -9 -29 -10 -11 -56 22 -77 56 -39 60 -20 69 48 26z m-12173 -116 c13 -20
9 -35 -14 -51 -33 -23 -57 -20 -69 10 -13 36 14 68 50 59 14 -4 29 -12 33 -18z
m12336 -309 c-2 -28 -7 -33 -28 -33 -16 0 -26 7 -28 18 -6 30 6 47 33 47 24 0
26 -3 23 -32z m-571 -18 c29 -36 8 -100 -33 -100 -58 0 -83 47 -53 101 12 24
67 23 86 -1z m-10231 -125 c9 -23 -16 -75 -36 -75 -25 0 -47 55 -30 75 16 19
59 19 66 0z m-1466 -247 c0 -45 -10 -58 -45 -58 -40 0 -56 18 -53 59 2 26 8
33 33 40 39 10 65 -6 65 -41z m49 -252 c7 -8 11 -32 9 -53 -3 -38 -3 -38 -48
-38 -43 0 -45 1 -48 32 -5 46 13 73 47 73 16 0 34 -6 40 -14z m-568 -141 c79
-55 174 -161 221 -247 32 -59 20 -72 -19 -21 -32 43 -55 63 -65 57 -4 -2 -9 0
-13 6 -4 6 -10 8 -15 5 -5 -3 -32 17 -61 45 -28 27 -60 52 -71 56 -29 9 -57
35 -74 66 -18 35 -18 37 9 48 35 14 48 12 88 -15z m950 1 c16 10 10 -49 -8
-68 -27 -30 -43 -23 -36 15 3 17 6 37 7 42 2 15 20 26 24 15 2 -6 8 -8 13 -4z
m-248 -74 c35 -20 167 -198 167 -225 0 -60 -105 -198 -178 -232 -29 -14 -101
-21 -142 -12 -31 5 -113 60 -144 95 -59 67 -69 99 -37 129 12 12 20 38 24 74
5 53 10 61 64 117 35 37 72 65 93 71 45 13 115 6 153 -17z m-859 -77 c-4 -9
-13 -14 -21 -11 -8 3 -19 6 -24 6 -19 0 -8 31 14 39 25 10 41 -7 31 -34z
m12738 -102 c22 -19 12 -43 -17 -43 -17 0 -26 9 -34 31 -6 18 -11 34 -11 36 0
8 45 -10 62 -24z m-10684 -27 c-2 -21 -5 -23 -21 -15 -15 8 -16 13 -6 25 17
21 29 17 27 -10z m-158 -23 c34 -23 40 -33 40 -68 0 -40 -16 -55 -57 -55 -67
0 -104 39 -87 93 15 46 61 60 104 30z m11030 -88 c0 -20 -5 -25 -24 -25 -13 0
-26 7 -30 15 -3 8 -1 15 5 15 6 0 7 5 4 10 -4 6 5 10 19 10 21 0 26 -5 26 -25z
m-806 -21 c7 -18 -1 -37 -13 -29 -5 2 -11 14 -14 25 -6 24 18 28 27 4z m-473
-14 c23 -13 27 -78 4 -86 -22 -9 -70 11 -73 30 -4 20 23 66 39 66 6 0 19 -5
30 -10z m693 -106 c9 -34 -5 -48 -28 -31 -16 12 -17 16 -5 35 18 29 25 28 33
-4z m-10840 -50 c21 -54 -15 -105 -62 -88 -21 7 -28 17 -30 42 -2 18 2 40 9
48 16 19 75 18 83 -2z m9826 -17 c0 4 11 -8 24 -26 13 -17 27 -53 30 -79 12
-80 24 -106 77 -157 64 -63 89 -112 92 -178 l2 -52 -33 -3 c-47 -5 -68 19 -93
102 -11 39 -27 81 -35 93 -15 24 -86 72 -168 113 -99 51 -97 100 5 100 l59 0
0 50 c0 48 1 50 20 40 11 -6 20 -7 20 -3z m1507 -232 c0 -8 -6 -16 -14 -19 -9
-4 -13 3 -13 19 0 16 4 23 13 19 8 -3 14 -11 14 -19z m-10019 -147 c19 -19 14
-56 -9 -68 -17 -9 -23 -8 -35 7 -16 22 -17 29 -4 54 12 22 30 25 48 7z m8292
-433 c0 -8 -8 -11 -20 -8 -11 3 -20 11 -20 18 0 8 8 11 20 8 11 -3 20 -11 20
-18z m-8766 -204 c21 -23 56 -131 56 -171 0 -100 -99 -123 -137 -32 -19 45
-25 129 -11 157 15 29 50 65 63 65 7 0 20 -9 29 -19z m-910 -231 c34 -12 34
-23 -5 -159 -6 -21 -80 -89 -114 -105 -16 -8 -52 -18 -80 -22 -46 -6 -56 -14
-122 -82 -62 -65 -77 -75 -110 -77 -53 -4 -74 29 -72 107 2 65 19 87 79 107
54 18 77 37 125 103 47 65 82 91 160 119 56 21 102 24 139 9z m2004 -146 c27
-19 30 -71 5 -90 -22 -17 -75 -18 -91 -2 -19 19 -15 85 6 97 25 15 54 13 80
-5z m-1768 -34 c21 -11 40 -60 40 -101 0 -35 -59 -105 -95 -111 -14 -3 -38 3
-55 13 -28 18 -30 23 -30 79 0 87 31 128 98 129 13 1 32 -3 42 -9z m704 -1
c45 -21 47 -95 2 -118 -28 -15 -58 -4 -93 36 -25 28 -20 50 19 77 27 19 39 20
72 5z m-234 -67 c18 -14 22 -25 16 -45 -12 -51 -60 -30 -72 31 -6 27 -4 32 14
32 11 0 30 -8 42 -18z m-96 -105 c31 -23 28 -61 -7 -95 -35 -33 -66 -31 -86 6
-8 16 -4 27 25 61 39 45 42 47 68 28z m8610 -49 c22 -30 21 -32 -18 -53 -29
-16 -37 -17 -50 -6 -21 18 -20 30 6 58 27 29 43 29 62 1z m-6686 -68 c-13 -39
-107 -133 -160 -161 -45 -23 -45 -23 -45 -4 0 23 203 213 214 201 2 -2 -2 -18
-9 -36z m-2410 -165 c-3 -3 -9 2 -12 12 -6 14 -5 15 5 6 7 -7 10 -15 7 -18z
m4025 -157 c7 -26 8 -24 -19 -32 -26 -8 -41 19 -23 40 17 21 36 17 42 -8z
m-1303 -87 c26 -49 0 -78 -61 -69 -30 4 -48 50 -29 72 18 23 77 21 90 -3z
m314 -127 c13 -34 6 -62 -16 -67 -12 -4 -23 -5 -24 -4 -2 1 0 21 3 45 6 42 25
56 37 26z m1066 -69 c0 -15 -28 -28 -41 -19 -10 6 -12 47 -2 57 8 9 43 -22 43
-38z m-1227 -94 c63 -131 64 -155 13 -239 -43 -71 -91 -120 -139 -140 -44 -18
-134 -13 -177 11 -48 26 -62 42 -108 117 l-39 65 29 36 c16 20 31 48 34 62 8
46 21 71 55 108 69 74 178 116 247 95 30 -9 39 -21 85 -115z m-590 108 c61
-28 47 -109 -18 -109 -59 0 -84 49 -49 98 17 25 32 27 67 11z m7989 -6 c22
-20 23 -42 2 -71 -13 -19 -24 -22 -57 -20 -35 3 -43 7 -51 30 -7 18 -6 35 2
53 9 20 19 25 48 25 21 0 46 -7 56 -17z m-4942 -108 c0 -45 -3 -55 -21 -60
-22 -7 -44 13 -55 52 -9 35 -1 57 26 63 42 11 50 2 50 -55z m-419 -6 c13 -26
14 -81 2 -104 -8 -14 -12 -12 -26 18 -33 69 -10 149 24 86z m-958 -18 c38 -24
77 -84 77 -117 0 -10 -9 -37 -21 -60 -15 -33 -27 -44 -52 -50 -80 -17 -203 11
-238 54 -30 39 -24 73 23 127 70 79 137 94 211 46z m3243 -71 c1 -33 -4 -50
-19 -62 -45 -40 -107 58 -65 100 7 7 29 12 48 10 34 -3 35 -4 36 -48z m3397
-195 c106 -54 165 -119 203 -226 15 -45 6 -78 -34 -116 -47 -46 -115 -17 -176
76 -40 60 -79 91 -146 114 -63 21 -100 60 -100 105 0 47 11 64 52 79 51 19
122 8 201 -32z m-7569 -111 c18 -7 21 -40 6 -78 -7 -20 -17 -26 -38 -26 -23 0
-32 7 -45 35 -16 34 -16 36 3 55 20 20 45 25 74 14z m5845 -31 c12 -22 -17
-76 -37 -68 -8 3 -20 5 -28 5 -14 0 -21 60 -7 73 13 14 62 7 72 -10z m-3396
-48 c50 -32 82 -145 57 -204 -30 -73 -200 -67 -240 9 -10 19 -9 61 2 110 8 33
36 72 64 91 33 23 77 20 117 -6z m-1184 -139 c10 -12 8 -17 -7 -25 -20 -10
-32 1 -32 30 0 14 26 11 39 -5z m-595 -82 c7 -19 -3 -64 -14 -64 -5 0 -15 -3
-24 -6 -11 -4 -19 3 -27 22 -9 25 -7 31 11 46 27 22 46 23 54 2z m952 -169 c0
-39 -34 -97 -55 -93 -12 3 -16 15 -17 48 -1 57 13 82 46 78 20 -2 25 -9 26
-33z m399 -41 c24 -24 42 -64 60 -133 15 -60 13 -121 -5 -121 -4 0 -10 -8 -13
-19 -8 -32 -51 -31 -86 1 -38 36 -76 151 -68 205 11 68 74 105 112 67z m-188
-40 c24 -7 46 -51 41 -85 -5 -35 -30 -45 -77 -30 -37 11 -41 15 -41 45 0 19 8
41 20 54 23 24 25 25 57 16z m-620 -39 c27 -19 33 -52 16 -87 -11 -22 -21 -28
-45 -28 -63 0 -87 53 -47 104 23 30 45 33 76 11z m-452 -11 c41 -16 62 -131
33 -190 -16 -35 -58 -51 -95 -38 -26 9 -28 13 -31 79 -4 83 1 103 28 133 21
23 37 27 65 16z m1624 -613 c14 -11 37 -40 50 -65 18 -38 21 -52 13 -75 -6
-16 -9 -31 -6 -33 2 -3 -9 -17 -24 -31 l-28 -27 -31 33 c-51 53 -77 155 -51
197 16 25 42 25 77 1z m3801 -621 c25 -49 25 -53 0 -40 -25 13 -43 47 -36 66
8 21 14 17 36 -26z"/>
<path d="M7423 12644 c-3 -8 2 -23 11 -32 9 -10 16 -12 16 -5 0 7 -4 15 -10
18 -18 11 -10 26 10 20 11 -4 20 -2 20 4 0 17 -40 13 -47 -5z"/>
<path d="M7472 12612 c-9 -21 -9 -27 1 -34 20 -13 27 -9 27 15 0 38 -14 48
-28 19z"/>
<path d="M2276 7633 c-9 -10 -7 -73 3 -73 18 0 54 37 58 58 4 28 -4 28 -28 0
-12 -15 -17 -17 -13 -7 6 18 -8 33 -20 22z"/>
</g>
</svg>
